<svg xmlns="http://www.w3.org/2000/svg" id="floor-1-1" version="1.0" zoomAndPan="magnify" color-interpolation-filters="sRGB" contentScriptType="text/ecmascript" contentStyleType="text/css" width="100%" height="100%" viewBox="0 0 2400 1400" class="css-1-1-9"><style type="text/css"><![CDATA[
	
		.css-1-1-1 {fill:#ffffff;stroke:#000000;stroke-linecap:round;stroke-linejoin:round;stroke-width:0.72}
		.css-1-1-2 {fill:#b3b3b3}
		.css-1-1-3 {fill:#b3b3b3;stroke:none;stroke-linecap:round;stroke-linejoin:round;stroke-width:0.72;visibility:hidden}
		.css-1-1-4 {fill:#b3b3b3;stroke:none;stroke-linecap:round;stroke-linejoin:round;stroke-width:0.72}
		.css-1-1-5 {stroke:#000000;stroke-linecap:round;stroke-linejoin:round;stroke-width:0.24}
		.css-1-1-6 {fill:#ffffff;stroke:#ffffff;stroke-linecap:round;stroke-linejoin:round;stroke-width:0.24}
		.css-1-1-7 {fill:#ffffff}
		.css-1-1-8 {fill:#ffffff;stroke:#000000;stroke-linecap:round;stroke-linejoin:round;stroke-width:0.24}
		.css-1-1-9 {fill:none;fill-rule:evenodd;font-size:12;overflow:visible;stroke-linecap:square;stroke-miterlimit:3}
	
	]]></style><g transform="translate(134.693,-5.66929)"><g id="group587-1" transform="translate(1394.65,-374.173)"><g><rect x="0" y="1551.47" width="158.74" height="132.314" class="css-1-1-1" id="lot-1-1-1" l-desc="Information not available" l-title="lot-1-1-1" onclick="javascript: selectSvgLot(evt, this);" onmouseout="javascript: hoverSvgLot(evt, this);" onmouseover="javascript: hoverSvgLot(evt, this);" style="cursor: pointer;"/></g><g/></g><g id="group589-5" transform="translate(1224.57,-374.173)"><g><rect x="0" y="1551.03" width="164.409" height="132.753" class="css-1-1-1" id="lot-1-1-2" l-desc="Information not available" l-title="lot-1-1-2" onclick="javascript: selectSvgLot(evt, this);" onmouseout="javascript: hoverSvgLot(evt, this);" onmouseover="javascript: hoverSvgLot(evt, this);" style="cursor: pointer;"/></g><g/></g><g id="group591-9" transform="translate(1054.49,-374.117)"><g><rect x="0" y="1550.53" width="164.409" height="133.246" class="css-1-1-1" id="lot-1-1-3" l-desc="Information not available" l-title="lot-1-1-3" onclick="javascript: selectSvgLot(evt, this);" onmouseout="javascript: hoverSvgLot(evt, this);" onmouseover="javascript: hoverSvgLot(evt, this);" style="cursor: pointer;"/></g><g/></g><g id="group593-13" transform="translate(882.142,-374.173)"><g><rect x="0" y="1548.7" width="166.677" height="135.084" class="css-1-1-1" id="lot-1-1-4" l-desc="Information not available" l-title="lot-1-1-4" onclick="javascript: selectSvgLot(evt, this);" onmouseout="javascript: hoverSvgLot(evt, this);" onmouseover="javascript: hoverSvgLot(evt, this);" style="cursor: pointer;"/></g><g/></g><g id="group595-17" transform="translate(714.331,-373.823)"><g><rect x="0" y="1548.43" width="164.409" height="135.346" class="css-1-1-1" id="lot-1-1-5" l-desc="Information not available" l-title="lot-1-1-5" onclick="javascript: selectSvgLot(evt, this);" onmouseout="javascript: hoverSvgLot(evt, this);" onmouseover="javascript: hoverSvgLot(evt, this);" style="cursor: pointer;"/></g><g/></g><g id="group597-21" transform="translate(544.252,-374.173)"><g><rect x="0" y="1547.72" width="166.677" height="136.063" class="css-1-1-1" id="lot-1-1-6" l-desc="Information not available" l-title="lot-1-1-6" onclick="javascript: selectSvgLot(evt, this);" onmouseout="javascript: hoverSvgLot(evt, this);" onmouseover="javascript: hoverSvgLot(evt, this);" style="cursor: pointer;"/></g><g/></g><g id="group599-25" transform="translate(374.173,-374.173)"><g><rect x="0" y="1547.72" width="164.409" height="136.063" class="css-1-1-1" id="lot-1-1-7" l-desc="Information not available" l-title="lot-1-1-7" onclick="javascript: selectSvgLot(evt, this);" onmouseout="javascript: hoverSvgLot(evt, this);" onmouseover="javascript: hoverSvgLot(evt, this);" style="cursor: pointer;"/></g><g/></g><g id="group557-29" transform="translate(198.425,-374.173)"><g><rect x="0" y="1468.35" width="170.079" height="215.433" class="css-1-1-1" id="lot-1-1-8" l-desc="Information not available" l-title="lot-1-1-8" onclick="javascript: selectSvgLot(evt, this);" onmouseout="javascript: hoverSvgLot(evt, this);" onmouseover="javascript: hoverSvgLot(evt, this);" style="cursor: pointer;"/></g><g/></g><g id="group555-33" transform="translate(198.425,-595.276)"><g><rect x="0" y="1491.02" width="170.079" height="192.756" class="css-1-1-1" id="lot-1-1-9" l-desc="Information not available" l-title="lot-1-1-9" onclick="javascript: selectSvgLot(evt, this);" onmouseout="javascript: hoverSvgLot(evt, this);" onmouseover="javascript: hoverSvgLot(evt, this);" style="cursor: pointer;"/></g><g/></g><g id="group553-37" transform="translate(198.425,-793.701)"><g><rect x="0" y="1513.7" width="170.079" height="170.079" class="css-1-1-1" id="lot-1-1-10" l-desc="Information not available" l-title="lot-1-1-10" onclick="javascript: selectSvgLot(evt, this);" onmouseout="javascript: hoverSvgLot(evt, this);" onmouseover="javascript: hoverSvgLot(evt, this);" style="cursor: pointer;"/></g><g/></g><g id="group551-41" transform="translate(198.425,-969.449)"><g><rect x="0" y="1519.37" width="170.079" height="164.409" class="css-1-1-1" id="lot-1-1-11" l-desc="Information not available" l-title="lot-1-1-11" onclick="javascript: selectSvgLot(evt, this);" onmouseout="javascript: hoverSvgLot(evt, this);" onmouseover="javascript: hoverSvgLot(evt, this);" style="cursor: pointer;"/></g><g/></g><g id="group549-45" transform="translate(198.425,-1139.53)"><g><rect x="0" y="1519.37" width="170.079" height="164.409" class="css-1-1-1" id="lot-1-1-12" l-desc="Information not available" l-title="lot-1-1-12" onclick="javascript: selectSvgLot(evt, this);" onmouseout="javascript: hoverSvgLot(evt, this);" onmouseover="javascript: hoverSvgLot(evt, this);" style="cursor: pointer;"/></g><g/></g><g id="group585-49" transform="translate(1559.06,-374.117)"><g><rect x="0" y="1551.06" width="226.772" height="132.718" class="css-1-1-1" id="lot-1-1-13" l-desc="Information not available" l-title="lot-1-1-13" onclick="javascript: selectSvgLot(evt, this);" onmouseout="javascript: hoverSvgLot(evt, this);" onmouseover="javascript: hoverSvgLot(evt, this);" style="cursor: pointer;"/></g><g/></g><g id="group559-53" transform="translate(198.425,-1309.61)"><g><rect x="0" y="1519.37" width="221.102" height="164.409" class="css-1-1-1" id="lot-1-1-14" l-desc="Information not available" l-title="lot-1-1-14" onclick="javascript: selectSvgLot(evt, this);" onmouseout="javascript: hoverSvgLot(evt, this);" onmouseover="javascript: hoverSvgLot(evt, this);" style="cursor: pointer;"/></g><g/></g><g id="group8-57" transform="translate(2052.35,374.285) rotate(90.0043)"><g><path d="M0 1678.11 L935.45 1678.11 L935.45 1683.78 L0 1683.78 L0 1680.94 L0 1678.11 Z" class="css-1-1-2"/></g><g transform="translate(-1683.78,1683.78) rotate(-90)"><rect x="0" y="1683.21" width="5.66929" height="0.566929" class="css-1-1-3"/></g><g transform="translate(2619.23,1677.98) rotate(89.9957)"><rect x="0" y="1683.21" width="5.66929" height="0.566929" class="css-1-1-4"/></g><g/><g><path d="M0 1680.94 L0 1678.11 L935.45 1678.11" class="css-1-1-5"/><path d="M0 1680.94 L0 1683.78 L935.45 1683.78" class="css-1-1-5"/></g><g transform="translate(430.117,-5.66929)"/></g><g id="group29-73" transform="translate(198.427,-1133.86) rotate(7.26189E-005)"><g><path d="M-0 1678.11 L170.14 1678.11 L170.14 1683.78 L0 1683.78 L-0 1678.11 Z" class="css-1-1-2"/></g><g transform="translate(-1683.78,1683.78) rotate(-90)"><rect x="0" y="1683.21" width="5.66929" height="0.566929" class="css-1-1-4"/></g><g transform="translate(1853.92,1678.23) rotate(90.0042)"><rect x="0" y="1683.21" width="5.66929" height="0.566929" class="css-1-1-4"/></g><g/><g><path d="M-0 1678.11 L170.14 1678.11" class="css-1-1-5"/><path d="M0 1683.78 L170.14 1683.78" class="css-1-1-5"/></g><g transform="translate(49.6823,-5.66929)"/></g><g id="group43-89" transform="translate(198.426,-963.78) rotate(3.67051E-005)"><g><path d="M-0 1678.11 L170.12 1678.11 L170.12 1683.78 L0 1683.78 L-0 1678.11 Z" class="css-1-1-2"/></g><g transform="translate(-1683.78,1683.78) rotate(-90)"><rect x="0" y="1683.21" width="5.66929" height="0.566929" class="css-1-1-4"/></g><g transform="translate(1853.9,1678.23) rotate(90.0042)"><rect x="0" y="1683.21" width="5.66929" height="0.566929" class="css-1-1-4"/></g><g/><g><path d="M-0 1678.11 L170.12 1678.11" class="css-1-1-5"/><path d="M0 1683.78 L170.12 1683.78" class="css-1-1-5"/></g><g transform="translate(49.676,-5.66929)"/></g><g id="group50-105" transform="translate(368.535,2573.86) rotate(180)"><g><path d="M0 1678.11 L170.11 1678.11 L170.11 1683.78 L0 1683.78 L0 1678.11 Z" class="css-1-1-2"/></g><g transform="translate(-1683.78,1683.65) rotate(-89.9957)"><rect x="0" y="1683.21" width="5.66929" height="0.566929" class="css-1-1-4"/></g><g transform="translate(1853.89,1678.11) rotate(90)"><rect x="0" y="1683.21" width="5.66929" height="0.566929" class="css-1-1-4"/></g><g/><g><path d="M0 1678.11 L170.11 1678.11" class="css-1-1-5"/><path d="M0 1683.78 L170.11 1683.78" class="css-1-1-5"/></g><g transform="translate(49.6697,-5.66929)"/></g><g id="group57-121" transform="translate(368.52,2772.28) rotate(180)"><g><path d="M0 1678.11 L170.1 1678.11 L170.1 1683.78 L0 1683.78 L0 1678.11 Z" class="css-1-1-2"/></g><g transform="translate(-1683.78,1683.65) rotate(-89.9957)"><rect x="0" y="1683.21" width="5.66929" height="0.566929" class="css-1-1-4"/></g><g transform="translate(1853.87,1678.11) rotate(90)"><rect x="0" y="1683.21" width="5.66929" height="0.566929" class="css-1-1-4"/></g><g/><g><path d="M0 1678.11 L170.1 1678.11" class="css-1-1-5"/><path d="M0 1683.78 L170.1 1683.78" class="css-1-1-5"/></g><g transform="translate(49.6623,-5.66929)"/></g><g id="group64-137" transform="translate(2222.36,1174.19) rotate(90)"><g><path d="M0.02 1678.11 L135.42 1678.11 L135.42 1683.78 L0 1683.78 L0.02 1678.11 Z" class="css-1-1-2"/></g><g transform="translate(-1683.77,1677.03) rotate(-89.7702)"><rect x="0" y="1683.21" width="5.66934" height="0.566929" class="css-1-1-4"/></g><g transform="translate(1819.19,1678.11) rotate(90)"><rect x="0" y="1683.21" width="5.66929" height="0.566929" class="css-1-1-4"/></g><g/><g><path d="M0.02 1678.11 L135.42 1678.11" class="css-1-1-5"/><path d="M0 1683.78 L135.42 1683.78" class="css-1-1-5"/></g><g transform="translate(35.1569,-5.66929)"/></g><g id="group71-153" transform="translate(2392.99,1181.63) rotate(90.2298)"><g><path d="M0 1678.11 L134.71 1678.11 L134.73 1683.78 L0 1683.78 L0 1678.11 Z" class="css-1-1-2"/></g><g transform="translate(-1683.78,1683.78) rotate(-90)"><rect x="0" y="1683.21" width="5.66929" height="0.566929" class="css-1-1-4"/></g><g transform="translate(1818.48,1671.36) rotate(89.7702)"><rect x="0" y="1683.21" width="5.66934" height="0.566929" class="css-1-1-4"/></g><g/><g><path d="M0 1678.11 L134.71 1678.11" class="css-1-1-5"/><path d="M0 1683.78 L134.73 1683.78" class="css-1-1-5"/></g><g transform="translate(34.8154,-5.66929)"/></g><g id="group78-169" transform="translate(2562.52,1175.46) rotate(89.9968)"><g><path d="M0.02 1678.11 L134.05 1678.11 L134.05 1683.78 L0 1683.78 L0.02 1678.11 Z" class="css-1-1-2"/></g><g transform="translate(-1683.77,1676.93) rotate(-89.767)"><rect x="0" y="1683.21" width="5.66934" height="0.566929" class="css-1-1-4"/></g><g transform="translate(1817.83,1678.21) rotate(90.0032)"><rect x="0" y="1683.21" width="5.66929" height="0.566929" class="css-1-1-4"/></g><g/><g><path d="M0.02 1678.11 L134.05 1678.11" class="css-1-1-5"/><path d="M0 1683.78 L134.05 1683.78" class="css-1-1-5"/></g><g transform="translate(34.4749,-5.66929)"/></g><g id="group85-185" transform="translate(-629.291,1315.35) rotate(-90.0024)"><g><path d="M5.67 1678.11 L139.04 1678.11 L139.02 1683.78 L5.67 1683.78 L5.67 1678.11 Z" class="css-1-1-2"/></g><g transform="translate(-1678.11,1683.71) rotate(-89.9976)"><rect x="0" y="1683.21" width="5.66929" height="0.566929" class="css-1-1-4"/></g><g transform="translate(1822.8,1684.93) rotate(90.2322)"><rect x="0" y="1683.21" width="5.66934" height="0.566929" class="css-1-1-4"/></g><g/><g><path d="M5.67 1678.11 L139.04 1678.11" class="css-1-1-5"/><path d="M5.67 1683.78 L139.02 1683.78" class="css-1-1-5"/></g><g transform="translate(34.1226,-5.66929)"/></g><g id="group113-201" transform="translate(2902.68,1176.92) rotate(90)"><g><path d="M0.02 1678.11 L132.69 1678.11 L132.69 1683.78 L0 1683.78 L0.02 1678.11 Z" class="css-1-1-2"/></g><g transform="translate(-1683.77,1677.03) rotate(-89.7702)"><rect x="0" y="1683.21" width="5.66934" height="0.566929" class="css-1-1-4"/></g><g transform="translate(1816.47,1678.11) rotate(90)"><rect x="0" y="1683.21" width="5.66929" height="0.566929" class="css-1-1-4"/></g><g/><g><path d="M0.02 1678.11 L132.69 1678.11" class="css-1-1-5"/><path d="M0 1683.78 L132.69 1683.78" class="css-1-1-5"/></g><g transform="translate(33.7929,-5.66929)"/></g><g id="group120-217" transform="translate(3072.76,1177.68) rotate(90.0027)"><g><path d="M0.02 1678.11 L132 1678.11 L132.01 1683.78 L0 1683.78 L0.02 1678.11 Z" class="css-1-1-2"/></g><g transform="translate(-1683.77,1677.11) rotate(-89.7729)"><rect x="0" y="1683.21" width="5.66934" height="0.566929" class="css-1-1-4"/></g><g transform="translate(1815.78,1678.03) rotate(89.9973)"><rect x="0" y="1683.21" width="5.66929" height="0.566929" class="css-1-1-4"/></g><g/><g><path d="M0.02 1678.11 L132 1678.11" class="css-1-1-5"/><path d="M0 1683.78 L132.01 1683.78" class="css-1-1-5"/></g><g transform="translate(33.4519,-5.66929)"/></g><g id="group561-233" transform="translate(425.197,-1309.61)"><g><rect x="0" y="1519.37" width="164.409" height="164.409" class="css-1-1-1" id="lot-1-1-15" l-desc="Information not available" l-title="lot-1-1-15" onclick="javascript: selectSvgLot(evt, this);" onmouseout="javascript: hoverSvgLot(evt, this);" onmouseover="javascript: hoverSvgLot(evt, this);" style="cursor: pointer;"/></g><g/></g><g id="group563-237" transform="translate(592.441,-1309.61)"><g><rect x="0" y="1519.37" width="167.244" height="164.409" class="css-1-1-1" id="lot-1-1-16" l-desc="Information not available" l-title="lot-1-1-16" onclick="javascript: selectSvgLot(evt, this);" onmouseout="javascript: hoverSvgLot(evt, this);" onmouseover="javascript: hoverSvgLot(evt, this);" style="cursor: pointer;"/></g><g/></g><g id="group565-241" transform="translate(765.354,-1309.61)"><g><rect x="0" y="1519.37" width="164.409" height="164.409" class="css-1-1-1" id="lot-1-1-17" l-desc="Information not available" l-title="lot-1-1-17" onclick="javascript: selectSvgLot(evt, this);" onmouseout="javascript: hoverSvgLot(evt, this);" onmouseover="javascript: hoverSvgLot(evt, this);" style="cursor: pointer;"/></g><g/></g><g id="group567-245" transform="translate(935.433,-1309.61)"><g><rect x="0" y="1519.37" width="164.409" height="164.409" class="css-1-1-1" id="lot-1-1-18" l-desc="Information not available" l-title="lot-1-1-18" onclick="javascript: selectSvgLot(evt, this);" onmouseout="javascript: hoverSvgLot(evt, this);" onmouseover="javascript: hoverSvgLot(evt, this);" style="cursor: pointer;"/></g><g/></g><g id="group569-249" transform="translate(1105.51,-1309.61)"><g><rect x="0" y="1519.37" width="164.409" height="164.409" class="css-1-1-1" id="lot-1-1-19" l-desc="Information not available" l-title="lot-1-1-19" onclick="javascript: selectSvgLot(evt, this);" onmouseout="javascript: hoverSvgLot(evt, this);" onmouseover="javascript: hoverSvgLot(evt, this);" style="cursor: pointer;"/></g><g/></g><g id="group571-253" transform="translate(1275.59,-1309.61)"><g><rect x="0" y="1519.37" width="164.409" height="164.409" class="css-1-1-1" id="lot-1-1-20" l-desc="Information not available" l-title="lot-1-1-20" onclick="javascript: selectSvgLot(evt, this);" onmouseout="javascript: hoverSvgLot(evt, this);" onmouseover="javascript: hoverSvgLot(evt, this);" style="cursor: pointer;"/></g><g/></g><g id="group573-257" transform="translate(1445.67,-1309.61)"><g><rect x="0" y="1519.37" width="164.409" height="164.409" class="css-1-1-1" id="lot-1-1-21" l-desc="Information not available" l-title="lot-1-1-21" onclick="javascript: selectSvgLot(evt, this);" onmouseout="javascript: hoverSvgLot(evt, this);" onmouseover="javascript: hoverSvgLot(evt, this);" style="cursor: pointer;"/></g><g/></g><g id="group575-261" transform="translate(1615.75,-1196.22)"><g><rect x="0" y="1405.98" width="170.079" height="277.795" class="css-1-1-1" id="lot-1-1-22" l-desc="Information not available" l-title="lot-1-1-22" onclick="javascript: selectSvgLot(evt, this);" onmouseout="javascript: hoverSvgLot(evt, this);" onmouseover="javascript: hoverSvgLot(evt, this);" style="cursor: pointer;"/></g><g/></g><g id="group577-265" transform="translate(1615.75,-1024.72)"><g><rect x="0" y="1517.95" width="170.079" height="165.827" class="css-1-1-1" id="lot-1-1-23" l-desc="Information not available" l-title="lot-1-1-23" onclick="javascript: selectSvgLot(evt, this);" onmouseout="javascript: hoverSvgLot(evt, this);" onmouseover="javascript: hoverSvgLot(evt, this);" style="cursor: pointer;"/></g><g/></g><g id="group579-269" transform="translate(1615.75,-854.929)"><g><rect x="0" y="1518.24" width="170.079" height="165.543" class="css-1-1-1" id="lot-1-1-24" l-desc="Information not available" l-title="lot-1-1-24" onclick="javascript: selectSvgLot(evt, this);" onmouseout="javascript: hoverSvgLot(evt, this);" onmouseover="javascript: hoverSvgLot(evt, this);" style="cursor: pointer;"/></g><g/></g><g id="group581-273" transform="translate(1615.75,-685.984)"><g><rect x="0" y="1519.37" width="170.079" height="164.409" class="css-1-1-1" id="lot-1-1-25" l-desc="Information not available" l-title="lot-1-1-25" onclick="javascript: selectSvgLot(evt, this);" onmouseout="javascript: hoverSvgLot(evt, this);" onmouseover="javascript: hoverSvgLot(evt, this);" style="cursor: pointer;"/></g><g/></g><g id="group497-277" transform="translate(-1309.59,1112.33) rotate(-89.9957)"><g><path d="M-2.83 1683.92 L18.43 1683.92 L18.43 1677.97 L-2.83 1677.97 L-2.83 1683.92 Z" class="css-1-1-6"/></g><g transform="translate(-5.66929,2.83465)"/><g transform="translate(-5.66929,-5.66929)"/><g transform="translate(-2.83465,0)"/><g transform="translate(-2.83465,0)"><path d="M21.26 1683.78 L21.26 1678.11 L18.43 1678.11 L18.43 1680.94 L18.43 1683.78 L21.26 1683.78 Z M0 1683.78 L0         1678.11 L2.83 1678.11 L2.83 1680.94 L2.83 1683.78 L0 1683.78 Z" class="css-1-1-7"/><path d="M21.26 1683.78 L21.26 1678.11 L18.43 1678.11 L18.43 1680.94M18.43 1683.78 L21.26 1683.78M0 1683.78 L0 1678.11         L2.83 1678.11 L2.83 1680.94M2.83 1683.78 L0 1683.78" class="css-1-1-5"/></g><g><path d="M15.59 1680.94 L14.46 1680.94 L14.46 1683.78 L15.59 1683.78 L15.59 1680.94 Z M0 1680.94 L1.13 1680.94 L1.13         1683.78 L0 1683.78 L0 1680.94 Z" class="css-1-1-7"/><path d="M15.59 1680.94 L14.46 1680.94 L14.46 1683.78 L15.59 1683.78M0 1680.94 L1.13 1680.94 L1.13 1683.78 L0 1683.78" class="css-1-1-5"/></g><g transform="translate(-2.83465,0)"><path d="M21.26 1683.78 L21.26 1678.11" class="css-1-1-5"/><path d="M0 1683.78 L0 1678.11" class="css-1-1-5"/></g><g transform="translate(0,-5.66929)"><path d="M0 1683.78 A15.5919 15.5919 0 0 1 15.59 1668.19" class="css-1-1-5"/></g><g transform="translate(1696.54,1662.52) rotate(90)"><rect x="0" y="1680.94" width="15.5919" height="2.83465" class="css-1-1-8"/></g><g transform="translate(0,3364.72) scale(1,-1)"/><g transform="translate(-1668.19,1696.54) rotate(-90)"/><g transform="translate(-22.534,-5.66929)"/></g><g id="group510-307" transform="translate(-1309.58,914.191) rotate(-89.9957)"><g><path d="M-2.83 1683.92 L18.43 1683.92 L18.43 1677.97 L-2.83 1677.97 L-2.83 1683.92 Z" class="css-1-1-6"/></g><g transform="translate(-5.66929,2.83465)"/><g transform="translate(-5.66929,-5.66929)"/><g transform="translate(-2.83465,0)"/><g transform="translate(-2.83465,0)"><path d="M21.26 1683.78 L21.26 1678.11 L18.43 1678.11 L18.43 1680.94 L18.43 1683.78 L21.26 1683.78 Z M0 1683.78 L0         1678.11 L2.83 1678.11 L2.83 1680.94 L2.83 1683.78 L0 1683.78 Z" class="css-1-1-7"/><path d="M21.26 1683.78 L21.26 1678.11 L18.43 1678.11 L18.43 1680.94M18.43 1683.78 L21.26 1683.78M0 1683.78 L0 1678.11         L2.83 1678.11 L2.83 1680.94M2.83 1683.78 L0 1683.78" class="css-1-1-5"/></g><g><path d="M15.59 1680.94 L14.46 1680.94 L14.46 1683.78 L15.59 1683.78 L15.59 1680.94 Z M0 1680.94 L1.13 1680.94 L1.13         1683.78 L0 1683.78 L0 1680.94 Z" class="css-1-1-7"/><path d="M15.59 1680.94 L14.46 1680.94 L14.46 1683.78 L15.59 1683.78M0 1680.94 L1.13 1680.94 L1.13 1683.78 L0 1683.78" class="css-1-1-5"/></g><g transform="translate(-2.83465,0)"><path d="M21.26 1683.78 L21.26 1678.11" class="css-1-1-5"/><path d="M0 1683.78 L0 1678.11" class="css-1-1-5"/></g><g transform="translate(0,-5.66929)"><path d="M0 1683.78 A15.5919 15.5919 0 0 1 15.59 1668.19" class="css-1-1-5"/></g><g transform="translate(1696.54,1662.52) rotate(90)"><rect x="0" y="1680.94" width="15.5919" height="2.83465" class="css-1-1-8"/></g><g transform="translate(0,3364.72) scale(1,-1)"/><g transform="translate(-1668.19,1696.54) rotate(-90)"/><g transform="translate(-22.534,-5.66929)"/></g><g id="group523-337" transform="translate(-1309.56,738.443) rotate(-89.9957)"><g><path d="M-2.83 1683.92 L18.43 1683.92 L18.43 1677.97 L-2.83 1677.97 L-2.83 1683.92 Z" class="css-1-1-6"/></g><g transform="translate(-5.66929,2.83465)"/><g transform="translate(-5.66929,-5.66929)"/><g transform="translate(-2.83465,0)"/><g transform="translate(-2.83465,0)"><path d="M21.26 1683.78 L21.26 1678.11 L18.43 1678.11 L18.43 1680.94 L18.43 1683.78 L21.26 1683.78 Z M0 1683.78 L0         1678.11 L2.83 1678.11 L2.83 1680.94 L2.83 1683.78 L0 1683.78 Z" class="css-1-1-7"/><path d="M21.26 1683.78 L21.26 1678.11 L18.43 1678.11 L18.43 1680.94M18.43 1683.78 L21.26 1683.78M0 1683.78 L0 1678.11         L2.83 1678.11 L2.83 1680.94M2.83 1683.78 L0 1683.78" class="css-1-1-5"/></g><g><path d="M15.59 1680.94 L14.46 1680.94 L14.46 1683.78 L15.59 1683.78 L15.59 1680.94 Z M0 1680.94 L1.13 1680.94 L1.13         1683.78 L0 1683.78 L0 1680.94 Z" class="css-1-1-7"/><path d="M15.59 1680.94 L14.46 1680.94 L14.46 1683.78 L15.59 1683.78M0 1680.94 L1.13 1680.94 L1.13 1683.78 L0 1683.78" class="css-1-1-5"/></g><g transform="translate(-2.83465,0)"><path d="M21.26 1683.78 L21.26 1678.11" class="css-1-1-5"/><path d="M0 1683.78 L0 1678.11" class="css-1-1-5"/></g><g transform="translate(0,-5.66929)"><path d="M0 1683.78 A15.5919 15.5919 0 0 1 15.59 1668.19" class="css-1-1-5"/></g><g transform="translate(1696.54,1662.52) rotate(90)"><rect x="0" y="1680.94" width="15.5919" height="2.83465" class="css-1-1-8"/></g><g transform="translate(0,3364.72) scale(1,-1)"/><g transform="translate(-1668.19,1696.54) rotate(-90)"/><g transform="translate(-22.534,-5.66929)"/></g><g id="group211-367" transform="translate(-1309.54,398.003) rotate(-89.9957)"><g><path d="M-2.83 1683.92 L18.43 1683.92 L18.43 1677.97 L-2.83 1677.97 L-2.83 1683.92 Z" class="css-1-1-6"/></g><g transform="translate(-5.66929,2.83465)"/><g transform="translate(-5.66929,-5.66929)"/><g transform="translate(-2.83465,0)"/><g transform="translate(-2.83465,0)"><path d="M21.26 1683.78 L21.26 1678.11 L18.43 1678.11 L18.43 1680.94 L18.43 1683.78 L21.26 1683.78 Z M0 1683.78 L0         1678.11 L2.83 1678.11 L2.83 1680.94 L2.83 1683.78 L0 1683.78 Z" class="css-1-1-7"/><path d="M21.26 1683.78 L21.26 1678.11 L18.43 1678.11 L18.43 1680.94M18.43 1683.78 L21.26 1683.78M0 1683.78 L0 1678.11         L2.83 1678.11 L2.83 1680.94M2.83 1683.78 L0 1683.78" class="css-1-1-5"/></g><g><path d="M15.59 1680.94 L14.46 1680.94 L14.46 1683.78 L15.59 1683.78 L15.59 1680.94 Z M0 1680.94 L1.13 1680.94 L1.13         1683.78 L0 1683.78 L0 1680.94 Z" class="css-1-1-7"/><path d="M15.59 1680.94 L14.46 1680.94 L14.46 1683.78 L15.59 1683.78M0 1680.94 L1.13 1680.94 L1.13 1683.78 L0 1683.78" class="css-1-1-5"/></g><g transform="translate(-2.83465,0)"><path d="M21.26 1683.78 L21.26 1678.11" class="css-1-1-5"/><path d="M0 1683.78 L0 1678.11" class="css-1-1-5"/></g><g transform="translate(0,-5.66929)"><path d="M0 1683.78 A15.5919 15.5919 0 0 1 15.59 1668.19" class="css-1-1-5"/></g><g transform="translate(1696.54,1662.52) rotate(90)"><rect x="0" y="1680.94" width="15.5919" height="2.83465" class="css-1-1-8"/></g><g transform="translate(0,3364.72) scale(1,-1)"/><g transform="translate(-1668.19,1696.54) rotate(-90)"/><g transform="translate(-22.534,-5.66929)"/></g><g id="group601-397" transform="translate(453.543,-1218.9)"><g><path d="M-0 1678.11 L340.16 1678.11 L334.49 1683.78 L5.67 1683.78 L-0 1678.11 Z" class="css-1-1-2"/></g><g transform="translate(-1184.94,2874.39) rotate(-135)"><rect x="0" y="1683.21" width="8.01759" height="0.566929" class="css-1-1-3"/></g><g transform="translate(1530.77,2868.72) rotate(135)"><rect x="0" y="1683.21" width="8.01759" height="0.566929" class="css-1-1-3"/></g><g/><g><path d="M-0 1678.11 L340.16 1678.11" class="css-1-1-5"/><path d="M5.67 1683.78 L334.49 1683.78" class="css-1-1-5"/></g><g transform="translate(134.693,-5.66929)"/></g><g id="group608-413" transform="translate(453.543,-595.276)"><g><path d="M5.67 1678.11 L334.49 1678.11 L340.16 1683.78 L0 1683.78 L5.67 1678.11 Z" class="css-1-1-2"/></g><g transform="translate(-1190.61,493.168) rotate(-45)"><rect x="0" y="1683.21" width="8.01759" height="0.566929" class="css-1-1-3"/></g><g transform="translate(1525.1,487.498) rotate(45)"><rect x="0" y="1683.21" width="8.01759" height="0.566929" class="css-1-1-3"/></g><g/><g><path d="M5.67 1678.11 L334.49 1678.11" class="css-1-1-5"/><path d="M0 1683.78 L340.16 1683.78" class="css-1-1-5"/></g><g transform="translate(134.693,-5.66929)"/></g><g id="group615-429" transform="translate(2137.32,464.882) rotate(90)"><g><path d="M-0 1678.11 L617.95 1678.11 L623.62 1683.78 L-5.67 1683.78 L-0 1678.11 Z" class="css-1-1-2"/></g><g transform="translate(-1196.28,493.168) rotate(-45)"><rect x="0" y="1683.21" width="8.01759" height="0.566929" class="css-1-1-3"/></g><g transform="translate(1808.56,487.498) rotate(45)"><rect x="0" y="1683.21" width="8.01759" height="0.566929" class="css-1-1-3"/></g><g/><g><path d="M-0 1678.11 L617.95 1678.11" class="css-1-1-5"/><path d="M-5.67 1683.78 L623.62 1683.78" class="css-1-1-5"/></g><g transform="translate(271.37,-5.66929)"/></g><g id="group622-445" transform="translate(-890.079,1088.5) rotate(-90)"><g><path d="M5.67 1678.11 L623.62 1678.11 L629.29 1683.78 L0 1683.78 L5.67 1678.11 Z" class="css-1-1-2"/></g><g transform="translate(-1190.61,493.168) rotate(-45)"><rect x="0" y="1683.21" width="8.01759" height="0.566929" class="css-1-1-3"/></g><g transform="translate(1814.23,487.498) rotate(45)"><rect x="0" y="1683.21" width="8.01759" height="0.566929" class="css-1-1-3"/></g><g/><g><path d="M5.67 1678.11 L623.62 1678.11" class="css-1-1-5"/><path d="M0 1683.78 L629.29 1683.78" class="css-1-1-5"/></g><g transform="translate(271.37,-5.66929)"/></g><g id="group629-461" transform="translate(1190.55,-1218.9)"><g><path d="M-0 1678.11 L340.16 1678.11 L334.49 1683.78 L5.67 1683.78 L-0 1678.11 Z" class="css-1-1-2"/></g><g transform="translate(-1184.94,2874.39) rotate(-135)"><rect x="0" y="1683.21" width="8.01759" height="0.566929" class="css-1-1-3"/></g><g transform="translate(1530.77,2868.72) rotate(135)"><rect x="0" y="1683.21" width="8.01759" height="0.566929" class="css-1-1-3"/></g><g/><g><path d="M-0 1678.11 L340.16 1678.11" class="css-1-1-5"/><path d="M5.67 1683.78 L334.49 1683.78" class="css-1-1-5"/></g><g transform="translate(134.693,-5.66929)"/></g><g id="group636-477" transform="translate(1190.55,-595.276)"><g><path d="M5.67 1678.11 L334.49 1678.11 L340.16 1683.78 L0 1683.78 L5.67 1678.11 Z" class="css-1-1-2"/></g><g transform="translate(-1190.61,493.168) rotate(-45)"><rect x="0" y="1683.21" width="8.01759" height="0.566929" class="css-1-1-3"/></g><g transform="translate(1525.1,487.498) rotate(45)"><rect x="0" y="1683.21" width="8.01759" height="0.566929" class="css-1-1-3"/></g><g/><g><path d="M5.67 1678.11 L334.49 1678.11" class="css-1-1-5"/><path d="M0 1683.78 L340.16 1683.78" class="css-1-1-5"/></g><g transform="translate(134.693,-5.66929)"/></g><g id="group643-493" transform="translate(2874.33,464.882) rotate(90)"><g><path d="M-0 1678.11 L617.95 1678.11 L623.62 1683.78 L-5.67 1683.78 L-0 1678.11 Z" class="css-1-1-2"/></g><g transform="translate(-1196.28,493.168) rotate(-45)"><rect x="0" y="1683.21" width="8.01759" height="0.566929" class="css-1-1-3"/></g><g transform="translate(1808.56,487.498) rotate(45)"><rect x="0" y="1683.21" width="8.01759" height="0.566929" class="css-1-1-3"/></g><g/><g><path d="M-0 1678.11 L617.95 1678.11" class="css-1-1-5"/><path d="M-5.67 1683.78 L623.62 1683.78" class="css-1-1-5"/></g><g transform="translate(271.37,-5.66929)"/></g><g id="group650-509" transform="translate(-153.071,1088.5) rotate(-90)"><g><path d="M5.67 1678.11 L623.62 1678.11 L629.29 1683.78 L0 1683.78 L5.67 1678.11 Z" class="css-1-1-2"/></g><g transform="translate(-1190.61,493.168) rotate(-45)"><rect x="0" y="1683.21" width="8.01759" height="0.566929" class="css-1-1-3"/></g><g transform="translate(1814.23,487.498) rotate(45)"><rect x="0" y="1683.21" width="8.01759" height="0.566929" class="css-1-1-3"/></g><g/><g><path d="M5.67 1678.11 L623.62 1678.11" class="css-1-1-5"/><path d="M0 1683.78 L629.29 1683.78" class="css-1-1-5"/></g><g transform="translate(271.37,-5.66929)"/></g><g id="group657-525" transform="translate(453.543,-737.008)"><g><path d="M5.67 1678.11 L334.49 1678.11 L334.49 1683.78 L5.67 1683.78 L5.67 1678.11 Z" class="css-1-1-2"/></g><g transform="translate(-1678.11,1683.78) rotate(-90)"><rect x="0" y="1683.21" width="5.66929" height="0.566929" class="css-1-1-4"/></g><g transform="translate(2018.27,1678.11) rotate(90)"><rect x="0" y="1683.21" width="5.66929" height="0.566929" class="css-1-1-4"/></g><g/><g><path d="M5.67 1678.11 L334.49 1678.11" class="css-1-1-5"/><path d="M5.67 1683.78 L334.49 1683.78" class="css-1-1-5"/></g><g transform="translate(134.693,-5.66929)"/></g><g id="group664-541" transform="translate(453.543,-1077.17)"><g><path d="M5.67 1678.11 L334.49 1678.11 L334.49 1683.78 L5.67 1683.78 L5.67 1678.11 Z" class="css-1-1-2"/></g><g transform="translate(-1678.11,1683.78) rotate(-90)"><rect x="0" y="1683.21" width="5.66929" height="0.566929" class="css-1-1-4"/></g><g transform="translate(2018.27,1678.11) rotate(90)"><rect x="0" y="1683.21" width="5.66929" height="0.566929" class="css-1-1-4"/></g><g/><g><path d="M5.67 1678.11 L334.49 1678.11" class="css-1-1-5"/><path d="M5.67 1683.78 L334.49 1683.78" class="css-1-1-5"/></g><g transform="translate(134.693,-5.66929)"/></g><g id="group671-557" transform="translate(1190.55,-1077.17)"><g><path d="M5.67 1678.11 L334.49 1678.11 L334.49 1683.78 L5.67 1683.78 L5.67 1678.11 Z" class="css-1-1-2"/></g><g transform="translate(-1678.11,1683.78) rotate(-90)"><rect x="0" y="1683.21" width="5.66929" height="0.566929" class="css-1-1-4"/></g><g transform="translate(2018.27,1678.11) rotate(90)"><rect x="0" y="1683.21" width="5.66929" height="0.566929" class="css-1-1-4"/></g><g/><g><path d="M5.67 1678.11 L334.49 1678.11" class="css-1-1-5"/><path d="M5.67 1683.78 L334.49 1683.78" class="css-1-1-5"/></g><g transform="translate(134.693,-5.66929)"/></g><g id="group678-573" transform="translate(1190.55,-737.008)"><g><path d="M5.67 1678.11 L334.49 1678.11 L334.49 1683.78 L5.67 1683.78 L5.67 1678.11 Z" class="css-1-1-2"/></g><g transform="translate(-1678.11,1683.78) rotate(-90)"><rect x="0" y="1683.21" width="5.66929" height="0.566929" class="css-1-1-4"/></g><g transform="translate(2018.27,1678.11) rotate(90)"><rect x="0" y="1683.21" width="5.66929" height="0.566929" class="css-1-1-4"/></g><g/><g><path d="M5.67 1678.11 L334.49 1678.11" class="css-1-1-5"/><path d="M5.67 1683.78 L334.49 1683.78" class="css-1-1-5"/></g><g transform="translate(134.693,-5.66929)"/></g><g id="group30-589" transform="translate(-1485.35,1315.28) rotate(-90)"><g><path d="M-0 1678.11 L1111.18 1678.11 L1105.51 1683.78 L5.67 1683.78 L-0 1678.11 Z" class="css-1-1-2"/></g><g transform="translate(-1184.94,2874.39) rotate(-135)"><rect x="0" y="1683.21" width="8.01759" height="0.566929" class="css-1-1-3"/></g><g transform="translate(2301.79,2868.72) rotate(135)"><rect x="0" y="1683.21" width="8.01759" height="0.566929" class="css-1-1-3"/></g><g/><g><path d="M-0 1678.11 L1111.18 1678.11" class="css-1-1-5"/><path d="M5.67 1683.78 L1105.51 1683.78" class="css-1-1-5"/></g><g transform="translate(512.315,-5.66929)"/></g><g id="group90-605" transform="translate(198.425,-1474.02)"><g><path d="M-5.67 1678.11 L1593.07 1678.11 L1587.4 1683.78 L0 1683.78 L-5.67 1678.11 Z" class="css-1-1-2"/></g><g transform="translate(-1190.61,2874.39) rotate(-135)"><rect x="0" y="1683.21" width="8.01759" height="0.566929" class="css-1-1-3"/></g><g transform="translate(2783.68,2868.72) rotate(135)"><rect x="0" y="1683.21" width="8.01759" height="0.566929" class="css-1-1-3"/></g><g/><g><path d="M-5.67 1678.11 L1593.07 1678.11" class="css-1-1-5"/><path d="M0 1683.78 L1587.4 1683.78" class="css-1-1-5"/></g><g transform="translate(753.26,-5.66929)"/></g><g id="group204-621" transform="translate(-1258.58,379.843) rotate(-90)"><g><path d="M5.67 1678.11 L170.08 1678.11 L170.08 1683.78 L5.67 1683.78 L5.67 1678.11 Z" class="css-1-1-2"/></g><g transform="translate(-1678.11,1683.78) rotate(-90)"><rect x="0" y="1683.21" width="5.66929" height="0.566929" class="css-1-1-4"/></g><g transform="translate(1853.86,1678.11) rotate(90)"><rect x="0" y="1683.21" width="5.66929" height="0.566929" class="css-1-1-4"/></g><g/><g><path d="M5.67 1678.11 L170.08 1678.11" class="css-1-1-5"/><path d="M5.67 1683.78 L170.08 1683.78" class="css-1-1-5"/></g><g transform="translate(49.654,-5.66929)"/></g><g id="group1-637" transform="translate(198.425,-1303.94)"><g><path d="M0 1678.11 L1411.65 1678.11 L1411.65 1683.78 L0 1683.78 L0 1678.11 Z" class="css-1-1-2"/></g><g transform="translate(-1683.78,1683.78) rotate(-90)"><rect x="0" y="1683.21" width="5.66929" height="0.566929" class="css-1-1-4"/></g><g transform="translate(3095.43,1678.11) rotate(90)"><rect x="0" y="1683.21" width="5.66929" height="0.566929" class="css-1-1-4"/></g><g/><g><path d="M0 1678.11 L1411.65 1678.11" class="css-1-1-5"/><path d="M0 1683.78 L1411.65 1683.78" class="css-1-1-5"/></g><g transform="translate(668.221,-5.66929)"/></g><g id="group197-653" transform="translate(-1088.5,379.843) rotate(-90)"><g><path d="M5.67 1678.11 L170.08 1678.11 L170.08 1683.78 L5.67 1683.78 L5.67 1678.11 Z" class="css-1-1-2"/></g><g transform="translate(-1678.11,1683.78) rotate(-90)"><rect x="0" y="1683.21" width="5.66929" height="0.566929" class="css-1-1-4"/></g><g transform="translate(1853.86,1678.11) rotate(90)"><rect x="0" y="1683.21" width="5.66929" height="0.566929" class="css-1-1-4"/></g><g/><g><path d="M5.67 1678.11 L170.08 1678.11" class="css-1-1-5"/><path d="M5.67 1683.78 L170.08 1683.78" class="css-1-1-5"/></g><g transform="translate(49.654,-5.66929)"/></g><g id="group190-669" transform="translate(-918.425,379.843) rotate(-90)"><g><path d="M5.67 1678.11 L170.08 1678.11 L170.08 1683.78 L5.67 1683.78 L5.67 1678.11 Z" class="css-1-1-2"/></g><g transform="translate(-1678.11,1683.78) rotate(-90)"><rect x="0" y="1683.21" width="5.66929" height="0.566929" class="css-1-1-4"/></g><g transform="translate(1853.86,1678.11) rotate(90)"><rect x="0" y="1683.21" width="5.66929" height="0.566929" class="css-1-1-4"/></g><g/><g><path d="M5.67 1678.11 L170.08 1678.11" class="css-1-1-5"/><path d="M5.67 1683.78 L170.08 1683.78" class="css-1-1-5"/></g><g transform="translate(49.654,-5.66929)"/></g><g id="group183-685" transform="translate(-748.346,379.843) rotate(-90)"><g><path d="M5.67 1678.11 L170.08 1678.11 L170.08 1683.78 L5.67 1683.78 L5.67 1678.11 Z" class="css-1-1-2"/></g><g transform="translate(-1678.11,1683.78) rotate(-90)"><rect x="0" y="1683.21" width="5.66929" height="0.566929" class="css-1-1-4"/></g><g transform="translate(1853.86,1678.11) rotate(90)"><rect x="0" y="1683.21" width="5.66929" height="0.566929" class="css-1-1-4"/></g><g/><g><path d="M5.67 1678.11 L170.08 1678.11" class="css-1-1-5"/><path d="M5.67 1683.78 L170.08 1683.78" class="css-1-1-5"/></g><g transform="translate(49.654,-5.66929)"/></g><g id="group176-701" transform="translate(-578.268,379.843) rotate(-90)"><g><path d="M5.67 1678.11 L170.08 1678.11 L170.08 1683.78 L5.67 1683.78 L5.67 1678.11 Z" class="css-1-1-2"/></g><g transform="translate(-1678.11,1683.78) rotate(-90)"><rect x="0" y="1683.21" width="5.66929" height="0.566929" class="css-1-1-4"/></g><g transform="translate(1853.86,1678.11) rotate(90)"><rect x="0" y="1683.21" width="5.66929" height="0.566929" class="css-1-1-4"/></g><g/><g><path d="M5.67 1678.11 L170.08 1678.11" class="css-1-1-5"/><path d="M5.67 1683.78 L170.08 1683.78" class="css-1-1-5"/></g><g transform="translate(49.654,-5.66929)"/></g><g id="group169-717" transform="translate(-408.189,379.843) rotate(-90)"><g><path d="M5.67 1678.11 L170.08 1678.11 L170.08 1683.78 L5.67 1683.78 L5.67 1678.11 Z" class="css-1-1-2"/></g><g transform="translate(-1678.11,1683.78) rotate(-90)"><rect x="0" y="1683.21" width="5.66929" height="0.566929" class="css-1-1-4"/></g><g transform="translate(1853.86,1678.11) rotate(90)"><rect x="0" y="1683.21" width="5.66929" height="0.566929" class="css-1-1-4"/></g><g/><g><path d="M5.67 1678.11 L170.08 1678.11" class="css-1-1-5"/><path d="M5.67 1683.78 L170.08 1683.78" class="css-1-1-5"/></g><g transform="translate(49.654,-5.66929)"/></g><g id="group162-733" transform="translate(-238.11,379.843) rotate(-90)"><g><path d="M5.67 1678.11 L170.08 1678.11 L170.08 1683.78 L5.67 1683.78 L5.67 1678.11 Z" class="css-1-1-2"/></g><g transform="translate(-1678.11,1683.78) rotate(-90)"><rect x="0" y="1683.21" width="5.66929" height="0.566929" class="css-1-1-4"/></g><g transform="translate(1853.86,1678.11) rotate(90)"><rect x="0" y="1683.21" width="5.66929" height="0.566929" class="css-1-1-4"/></g><g/><g><path d="M5.67 1678.11 L170.08 1678.11" class="css-1-1-5"/><path d="M5.67 1683.78 L170.08 1683.78" class="css-1-1-5"/></g><g transform="translate(49.654,-5.66929)"/></g><g id="group22-749" transform="translate(-68.0308,1178.51) rotate(-90)"><g><path d="M5.69 1678.11 L968.75 1678.11 L968.75 1683.78 L5.67 1683.78 L5.69 1678.11 Z" class="css-1-1-2"/></g><g transform="translate(-1678.1,1677.03) rotate(-89.7702)"><rect x="0" y="1683.21" width="5.66934" height="0.566929" class="css-1-1-4"/></g><g transform="translate(2652.53,1678.11) rotate(90)"><rect x="0" y="1683.21" width="5.66929" height="0.566929" class="css-1-1-4"/></g><g/><g><path d="M5.69 1678.11 L968.75 1678.11" class="css-1-1-5"/><path d="M5.67 1683.78 L968.75 1683.78" class="css-1-1-5"/></g><g transform="translate(443.933,-5.66929)"/></g><g id="group97-765" transform="translate(3469.61,209.764) rotate(90)"><g><path d="M-5.67 1678.11 L1105.51 1678.11 L1099.84 1683.78 L0 1683.78 L-5.67 1678.11 Z" class="css-1-1-2"/></g><g transform="translate(-1190.61,2874.39) rotate(-135)"><rect x="0" y="1683.21" width="8.01759" height="0.566929" class="css-1-1-3"/></g><g transform="translate(2296.12,2868.72) rotate(135)"><rect x="0" y="1683.21" width="8.01759" height="0.566929" class="css-1-1-3"/></g><g/><g><path d="M-5.67 1678.11 L1105.51 1678.11" class="css-1-1-5"/><path d="M0 1683.78 L1099.84 1683.78" class="css-1-1-5"/></g><g transform="translate(512.315,-5.66929)"/></g><g id="group155-781" transform="translate(1615.75,-1190.55)"><g><path d="M-0 1678.11 L170.08 1678.11 L170.08 1683.78 L0 1683.78 L-0 1678.11 Z" class="css-1-1-2"/></g><g transform="translate(-1683.78,1683.78) rotate(-90)"><rect x="0" y="1683.21" width="5.66929" height="0.566929" class="css-1-1-4"/></g><g transform="translate(1853.86,1678.11) rotate(90)"><rect x="0" y="1683.21" width="5.66929" height="0.566929" class="css-1-1-4"/></g><g/><g><path d="M-0 1678.11 L170.08 1678.11" class="css-1-1-5"/><path d="M0 1683.78 L170.08 1683.78" class="css-1-1-5"/></g><g transform="translate(49.6538,-5.66929)"/></g><g id="group148-797" transform="translate(1615.75,-1019.06)"><g><path d="M-0 1678.11 L170.08 1678.11 L170.08 1683.78 L0 1683.78 L-0 1678.11 Z" class="css-1-1-2"/></g><g transform="translate(-1683.78,1683.78) rotate(-90)"><rect x="0" y="1683.21" width="5.66929" height="0.566929" class="css-1-1-4"/></g><g transform="translate(1853.86,1678.11) rotate(90)"><rect x="0" y="1683.21" width="5.66929" height="0.566929" class="css-1-1-4"/></g><g/><g><path d="M-0 1678.11 L170.08 1678.11" class="css-1-1-5"/><path d="M0 1683.78 L170.08 1683.78" class="css-1-1-5"/></g><g transform="translate(49.6537,-5.66929)"/></g><g id="group141-813" transform="translate(1615.75,-848.976)"><g><path d="M-0 1678.11 L170.08 1678.11 L170.08 1683.78 L0 1683.78 L-0 1678.11 Z" class="css-1-1-2"/></g><g transform="translate(-1683.78,1683.78) rotate(-90)"><rect x="0" y="1683.21" width="5.66929" height="0.566929" class="css-1-1-4"/></g><g transform="translate(1853.86,1678.11) rotate(90)"><rect x="0" y="1683.21" width="5.66929" height="0.566929" class="css-1-1-4"/></g><g/><g><path d="M-0 1678.11 L170.08 1678.11" class="css-1-1-5"/><path d="M0 1683.78 L170.08 1683.78" class="css-1-1-5"/></g><g transform="translate(49.6536,-5.66929)"/></g><g id="group134-829" transform="translate(1615.75,-680.315)"><g><path d="M-0 1678.11 L170.08 1678.11 L170.08 1683.78 L0 1683.78 L-0 1678.11 Z" class="css-1-1-2"/></g><g transform="translate(-1683.78,1683.78) rotate(-90)"><rect x="0" y="1683.21" width="5.66929" height="0.566929" class="css-1-1-4"/></g><g transform="translate(1853.86,1678.11) rotate(90)"><rect x="0" y="1683.21" width="5.66929" height="0.566929" class="css-1-1-4"/></g><g/><g><path d="M-0 1678.11 L170.08 1678.11" class="css-1-1-5"/><path d="M0 1683.78 L170.08 1683.78" class="css-1-1-5"/></g><g transform="translate(49.6535,-5.66929)"/></g><g id="group127-845" transform="translate(-124.709,1315.28) rotate(-90)"><g><path d="M5.67 1678.11 L137.02 1678.11 L136.99 1683.78 L5.67 1683.78 L5.67 1678.11 Z" class="css-1-1-2"/></g><g transform="translate(-1678.11,1683.78) rotate(-90)"><rect x="0" y="1683.21" width="5.66929" height="0.566929" class="css-1-1-4"/></g><g transform="translate(1820.78,1684.86) rotate(90.2298)"><rect x="0" y="1683.21" width="5.66934" height="0.566929" class="css-1-1-4"/></g><g/><g><path d="M5.67 1678.11 L137.02 1678.11" class="css-1-1-5"/><path d="M5.67 1683.78 L136.99 1683.78" class="css-1-1-5"/></g><g transform="translate(33.1109,-5.66929)"/></g><g id="group15-861" transform="translate(375.266,-510.257) rotate(0.229751)"><g><path d="M5.65 1678.11 L1417.3 1678.11 L1417.32 1683.78 L5.67 1683.78 L5.65 1678.11 Z" class="css-1-1-2"/></g><g transform="translate(-1678.1,1690.41) rotate(-90.2255)"><rect x="0" y="1683.21" width="5.66934" height="0.566929" class="css-1-1-4"/></g><g transform="translate(3101.07,1671.36) rotate(89.7702)"><rect x="0" y="1683.21" width="5.66934" height="0.566929" class="css-1-1-4"/></g><g/><g><path d="M5.65 1678.11 L1417.3 1678.11" class="css-1-1-5"/><path d="M5.67 1683.78 L1417.32 1683.78" class="css-1-1-5"/></g><g transform="translate(668.221,-5.66929)"/></g><g id="group393-877" transform="translate(1571.15,2856.46) rotate(-179.77)"><g><path d="M-2.83 1683.92 L18.43 1683.92 L18.43 1677.97 L-2.83 1677.97 L-2.83 1683.92 Z" class="css-1-1-6"/></g><g transform="translate(-5.66929,2.83465)"/><g transform="translate(-5.66929,-5.66929)"/><g transform="translate(-2.83465,0)"/><g transform="translate(-2.83465,0)"><path d="M21.26 1683.78 L21.26 1678.11 L18.43 1678.11 L18.43 1680.94 L18.43 1683.78 L21.26 1683.78 Z M0 1683.78 L0         1678.11 L2.83 1678.11 L2.83 1680.94 L2.83 1683.78 L0 1683.78 Z" class="css-1-1-7"/><path d="M21.26 1683.78 L21.26 1678.11 L18.43 1678.11 L18.43 1680.94M18.43 1683.78 L21.26 1683.78M0 1683.78 L0 1678.11         L2.83 1678.11 L2.83 1680.94M2.83 1683.78 L0 1683.78" class="css-1-1-5"/></g><g><path d="M15.59 1680.94 L14.46 1680.94 L14.46 1683.78 L15.59 1683.78 L15.59 1680.94 Z M0 1680.94 L1.13 1680.94 L1.13         1683.78 L0 1683.78 L0 1680.94 Z" class="css-1-1-7"/><path d="M15.59 1680.94 L14.46 1680.94 L14.46 1683.78 L15.59 1683.78M0 1680.94 L1.13 1680.94 L1.13 1683.78 L0 1683.78" class="css-1-1-5"/></g><g transform="translate(-2.83465,0)"><path d="M21.26 1683.78 L21.26 1678.11" class="css-1-1-5"/><path d="M0 1683.78 L0 1678.11" class="css-1-1-5"/></g><g transform="translate(0,-5.66929)"><path d="M0 1683.78 A15.5919 15.5919 0 0 1 15.59 1668.19" class="css-1-1-5"/></g><g transform="translate(1696.54,1662.52) rotate(90)"><rect x="0" y="1680.94" width="15.5919" height="2.83465" class="css-1-1-8"/></g><g transform="translate(0,3364.72) scale(1,-1)"/><g transform="translate(-1668.19,1696.54) rotate(-90)"/><g transform="translate(-22.534,-5.66929)"/></g><g id="group104-907" transform="translate(198.425,-368.504)"><g><path d="M-0 1678.11 L1587.4 1678.11 L1593.07 1683.78 L-5.67 1683.78 L-0 1678.11 Z" class="css-1-1-2"/></g><g transform="translate(-1196.28,493.168) rotate(-45)"><rect x="0" y="1683.21" width="8.01759" height="0.566929" class="css-1-1-3"/></g><g transform="translate(2778.01,487.498) rotate(45)"><rect x="0" y="1683.21" width="8.01759" height="0.566929" class="css-1-1-3"/></g><g/><g><path d="M-0 1678.11 L1587.4 1678.11" class="css-1-1-5"/><path d="M-5.67 1683.78 L1593.07 1683.78" class="css-1-1-5"/></g><g transform="translate(753.26,-5.66929)"/></g><g id="group583-923" transform="translate(1615.75,-510.803)"><g><rect x="0" y="1514.27" width="170.079" height="169.512" class="css-1-1-1" id="lot-1-1-26" l-desc="Information not available" l-title="lot-1-1-26" onclick="javascript: selectSvgLot(evt, this);" onmouseout="javascript: hoverSvgLot(evt, this);" onmouseover="javascript: hoverSvgLot(evt, this);" style="cursor: pointer;"/></g><g/></g><g id="group380-927" transform="translate(3293.86,1154.41) rotate(90)"><g><path d="M-2.83 1683.92 L18.43 1683.92 L18.43 1677.97 L-2.83 1677.97 L-2.83 1683.92 Z" class="css-1-1-6"/></g><g transform="translate(-5.66929,2.83465)"/><g transform="translate(-5.66929,-5.66929)"/><g transform="translate(-2.83465,0)"/><g transform="translate(-2.83465,0)"><path d="M21.26 1683.78 L21.26 1678.11 L18.43 1678.11 L18.43 1680.94 L18.43 1683.78 L21.26 1683.78 Z M0 1683.78 L0         1678.11 L2.83 1678.11 L2.83 1680.94 L2.83 1683.78 L0 1683.78 Z" class="css-1-1-7"/><path d="M21.26 1683.78 L21.26 1678.11 L18.43 1678.11 L18.43 1680.94M18.43 1683.78 L21.26 1683.78M0 1683.78 L0 1678.11         L2.83 1678.11 L2.83 1680.94M2.83 1683.78 L0 1683.78" class="css-1-1-5"/></g><g><path d="M15.59 1680.94 L14.46 1680.94 L14.46 1683.78 L15.59 1683.78 L15.59 1680.94 Z M0 1680.94 L1.13 1680.94 L1.13         1683.78 L0 1683.78 L0 1680.94 Z" class="css-1-1-7"/><path d="M15.59 1680.94 L14.46 1680.94 L14.46 1683.78 L15.59 1683.78M0 1680.94 L1.13 1680.94 L1.13 1683.78 L0 1683.78" class="css-1-1-5"/></g><g transform="translate(-2.83465,0)"><path d="M21.26 1683.78 L21.26 1678.11" class="css-1-1-5"/><path d="M0 1683.78 L0 1678.11" class="css-1-1-5"/></g><g transform="translate(0,-5.66929)"><path d="M0 1683.78 A15.5919 15.5919 0 0 1 15.59 1668.19" class="css-1-1-5"/></g><g transform="translate(1696.54,1662.52) rotate(90)"><rect x="0" y="1680.94" width="15.5919" height="2.83465" class="css-1-1-8"/></g><g transform="translate(0,3364.72) scale(1,-1)"/><g transform="translate(-1668.19,1696.54) rotate(-90)"/><g transform="translate(-22.534,-5.66929)"/></g><g id="group367-957" transform="translate(3293.86,979.369) rotate(90)"><g><path d="M-2.83 1683.92 L18.43 1683.92 L18.43 1677.97 L-2.83 1677.97 L-2.83 1683.92 Z" class="css-1-1-6"/></g><g transform="translate(-5.66929,2.83465)"/><g transform="translate(-5.66929,-5.66929)"/><g transform="translate(-2.83465,0)"/><g transform="translate(-2.83465,0)"><path d="M21.26 1683.78 L21.26 1678.11 L18.43 1678.11 L18.43 1680.94 L18.43 1683.78 L21.26 1683.78 Z M0 1683.78 L0         1678.11 L2.83 1678.11 L2.83 1680.94 L2.83 1683.78 L0 1683.78 Z" class="css-1-1-7"/><path d="M21.26 1683.78 L21.26 1678.11 L18.43 1678.11 L18.43 1680.94M18.43 1683.78 L21.26 1683.78M0 1683.78 L0 1678.11         L2.83 1678.11 L2.83 1680.94M2.83 1683.78 L0 1683.78" class="css-1-1-5"/></g><g><path d="M15.59 1680.94 L14.46 1680.94 L14.46 1683.78 L15.59 1683.78 L15.59 1680.94 Z M0 1680.94 L1.13 1680.94 L1.13         1683.78 L0 1683.78 L0 1680.94 Z" class="css-1-1-7"/><path d="M15.59 1680.94 L14.46 1680.94 L14.46 1683.78 L15.59 1683.78M0 1680.94 L1.13 1680.94 L1.13 1683.78 L0 1683.78" class="css-1-1-5"/></g><g transform="translate(-2.83465,0)"><path d="M21.26 1683.78 L21.26 1678.11" class="css-1-1-5"/><path d="M0 1683.78 L0 1678.11" class="css-1-1-5"/></g><g transform="translate(0,-5.66929)"><path d="M0 1683.78 A15.5919 15.5919 0 0 1 15.59 1668.19" class="css-1-1-5"/></g><g transform="translate(1696.54,1662.52) rotate(90)"><rect x="0" y="1680.94" width="15.5919" height="2.83465" class="css-1-1-8"/></g><g transform="translate(0,3364.72) scale(1,-1)"/><g transform="translate(-1668.19,1696.54) rotate(-90)"/><g transform="translate(-22.534,-5.66929)"/></g><g id="group354-987" transform="translate(3293.86,810.709) rotate(90)"><g><path d="M-2.83 1683.92 L18.43 1683.92 L18.43 1677.97 L-2.83 1677.97 L-2.83 1683.92 Z" class="css-1-1-6"/></g><g transform="translate(-5.66929,2.83465)"/><g transform="translate(-5.66929,-5.66929)"/><g transform="translate(-2.83465,0)"/><g transform="translate(-2.83465,0)"><path d="M21.26 1683.78 L21.26 1678.11 L18.43 1678.11 L18.43 1680.94 L18.43 1683.78 L21.26 1683.78 Z M0 1683.78 L0         1678.11 L2.83 1678.11 L2.83 1680.94 L2.83 1683.78 L0 1683.78 Z" class="css-1-1-7"/><path d="M21.26 1683.78 L21.26 1678.11 L18.43 1678.11 L18.43 1680.94M18.43 1683.78 L21.26 1683.78M0 1683.78 L0 1678.11         L2.83 1678.11 L2.83 1680.94M2.83 1683.78 L0 1683.78" class="css-1-1-5"/></g><g><path d="M15.59 1680.94 L14.46 1680.94 L14.46 1683.78 L15.59 1683.78 L15.59 1680.94 Z M0 1680.94 L1.13 1680.94 L1.13         1683.78 L0 1683.78 L0 1680.94 Z" class="css-1-1-7"/><path d="M15.59 1680.94 L14.46 1680.94 L14.46 1683.78 L15.59 1683.78M0 1680.94 L1.13 1680.94 L1.13 1683.78 L0 1683.78" class="css-1-1-5"/></g><g transform="translate(-2.83465,0)"><path d="M21.26 1683.78 L21.26 1678.11" class="css-1-1-5"/><path d="M0 1683.78 L0 1678.11" class="css-1-1-5"/></g><g transform="translate(0,-5.66929)"><path d="M0 1683.78 A15.5919 15.5919 0 0 1 15.59 1668.19" class="css-1-1-5"/></g><g transform="translate(1696.54,1662.52) rotate(90)"><rect x="0" y="1680.94" width="15.5919" height="2.83465" class="css-1-1-8"/></g><g transform="translate(0,3364.72) scale(1,-1)"/><g transform="translate(-1668.19,1696.54) rotate(-90)"/><g transform="translate(-22.534,-5.66929)"/></g><g id="group341-1017" transform="translate(3293.86,640.63) rotate(90)"><g><path d="M-2.83 1683.92 L18.43 1683.92 L18.43 1677.97 L-2.83 1677.97 L-2.83 1683.92 Z" class="css-1-1-6"/></g><g transform="translate(-5.66929,2.83465)"/><g transform="translate(-5.66929,-5.66929)"/><g transform="translate(-2.83465,0)"/><g transform="translate(-2.83465,0)"><path d="M21.26 1683.78 L21.26 1678.11 L18.43 1678.11 L18.43 1680.94 L18.43 1683.78 L21.26 1683.78 Z M0 1683.78 L0         1678.11 L2.83 1678.11 L2.83 1680.94 L2.83 1683.78 L0 1683.78 Z" class="css-1-1-7"/><path d="M21.26 1683.78 L21.26 1678.11 L18.43 1678.11 L18.43 1680.94M18.43 1683.78 L21.26 1683.78M0 1683.78 L0 1678.11         L2.83 1678.11 L2.83 1680.94M2.83 1683.78 L0 1683.78" class="css-1-1-5"/></g><g><path d="M15.59 1680.94 L14.46 1680.94 L14.46 1683.78 L15.59 1683.78 L15.59 1680.94 Z M0 1680.94 L1.13 1680.94 L1.13         1683.78 L0 1683.78 L0 1680.94 Z" class="css-1-1-7"/><path d="M15.59 1680.94 L14.46 1680.94 L14.46 1683.78 L15.59 1683.78M0 1680.94 L1.13 1680.94 L1.13 1683.78 L0 1683.78" class="css-1-1-5"/></g><g transform="translate(-2.83465,0)"><path d="M21.26 1683.78 L21.26 1678.11" class="css-1-1-5"/><path d="M0 1683.78 L0 1678.11" class="css-1-1-5"/></g><g transform="translate(0,-5.66929)"><path d="M0 1683.78 A15.5919 15.5919 0 0 1 15.59 1668.19" class="css-1-1-5"/></g><g transform="translate(1696.54,1662.52) rotate(90)"><rect x="0" y="1680.94" width="15.5919" height="2.83465" class="css-1-1-8"/></g><g transform="translate(0,3364.72) scale(1,-1)"/><g transform="translate(-1668.19,1696.54) rotate(-90)"/><g transform="translate(-22.534,-5.66929)"/></g><g id="group328-1047" transform="translate(3293.86,469.132) rotate(90)"><g><path d="M-2.83 1683.92 L18.43 1683.92 L18.43 1677.97 L-2.83 1677.97 L-2.83 1683.92 Z" class="css-1-1-6"/></g><g transform="translate(-5.66929,2.83465)"/><g transform="translate(-5.66929,-5.66929)"/><g transform="translate(-2.83465,0)"/><g transform="translate(-2.83465,0)"><path d="M21.26 1683.78 L21.26 1678.11 L18.43 1678.11 L18.43 1680.94 L18.43 1683.78 L21.26 1683.78 Z M0 1683.78 L0         1678.11 L2.83 1678.11 L2.83 1680.94 L2.83 1683.78 L0 1683.78 Z" class="css-1-1-7"/><path d="M21.26 1683.78 L21.26 1678.11 L18.43 1678.11 L18.43 1680.94M18.43 1683.78 L21.26 1683.78M0 1683.78 L0 1678.11         L2.83 1678.11 L2.83 1680.94M2.83 1683.78 L0 1683.78" class="css-1-1-5"/></g><g><path d="M15.59 1680.94 L14.46 1680.94 L14.46 1683.78 L15.59 1683.78 L15.59 1680.94 Z M0 1680.94 L1.13 1680.94 L1.13         1683.78 L0 1683.78 L0 1680.94 Z" class="css-1-1-7"/><path d="M15.59 1680.94 L14.46 1680.94 L14.46 1683.78 L15.59 1683.78M0 1680.94 L1.13 1680.94 L1.13 1683.78 L0 1683.78" class="css-1-1-5"/></g><g transform="translate(-2.83465,0)"><path d="M21.26 1683.78 L21.26 1678.11" class="css-1-1-5"/><path d="M0 1683.78 L0 1678.11" class="css-1-1-5"/></g><g transform="translate(0,-5.66929)"><path d="M0 1683.78 A15.5919 15.5919 0 0 1 15.59 1668.19" class="css-1-1-5"/></g><g transform="translate(1696.54,1662.52) rotate(90)"><rect x="0" y="1680.94" width="15.5919" height="2.83465" class="css-1-1-8"/></g><g transform="translate(0,3364.72) scale(1,-1)"/><g transform="translate(-1668.19,1696.54) rotate(-90)"/><g transform="translate(-22.534,-5.66929)"/></g><g id="group315-1077" transform="translate(1591.65,-1303.94)"><g><path d="M-2.83 1683.92 L18.43 1683.92 L18.43 1677.97 L-2.83 1677.97 L-2.83 1683.92 Z" class="css-1-1-6"/></g><g transform="translate(-5.66929,2.83465)"/><g transform="translate(-5.66929,-5.66929)"/><g transform="translate(-2.83465,0)"/><g transform="translate(-2.83465,0)"><path d="M21.26 1683.78 L21.26 1678.11 L18.43 1678.11 L18.43 1680.94 L18.43 1683.78 L21.26 1683.78 Z M0 1683.78 L0         1678.11 L2.83 1678.11 L2.83 1680.94 L2.83 1683.78 L0 1683.78 Z" class="css-1-1-7"/><path d="M21.26 1683.78 L21.26 1678.11 L18.43 1678.11 L18.43 1680.94M18.43 1683.78 L21.26 1683.78M0 1683.78 L0 1678.11         L2.83 1678.11 L2.83 1680.94M2.83 1683.78 L0 1683.78" class="css-1-1-5"/></g><g><path d="M15.59 1680.94 L14.46 1680.94 L14.46 1683.78 L15.59 1683.78 L15.59 1680.94 Z M0 1680.94 L1.13 1680.94 L1.13         1683.78 L0 1683.78 L0 1680.94 Z" class="css-1-1-7"/><path d="M15.59 1680.94 L14.46 1680.94 L14.46 1683.78 L15.59 1683.78M0 1680.94 L1.13 1680.94 L1.13 1683.78 L0 1683.78" class="css-1-1-5"/></g><g transform="translate(-2.83465,0)"><path d="M21.26 1683.78 L21.26 1678.11" class="css-1-1-5"/><path d="M0 1683.78 L0 1678.11" class="css-1-1-5"/></g><g transform="translate(0,-5.66929)"><path d="M0 1683.78 A15.5919 15.5919 0 0 1 15.59 1668.19" class="css-1-1-5"/></g><g transform="translate(1696.54,1662.52) rotate(90)"><rect x="0" y="1680.94" width="15.5919" height="2.83465" class="css-1-1-8"/></g><g transform="translate(0,3364.72) scale(1,-1)"/><g transform="translate(-1668.19,1696.54) rotate(-90)"/><g transform="translate(-22.534,-5.66929)"/></g><g id="group302-1107" transform="translate(1421.57,-1303.94)"><g><path d="M-2.83 1683.92 L18.43 1683.92 L18.43 1677.97 L-2.83 1677.97 L-2.83 1683.92 Z" class="css-1-1-6"/></g><g transform="translate(-5.66929,2.83465)"/><g transform="translate(-5.66929,-5.66929)"/><g transform="translate(-2.83465,0)"/><g transform="translate(-2.83465,0)"><path d="M21.26 1683.78 L21.26 1678.11 L18.43 1678.11 L18.43 1680.94 L18.43 1683.78 L21.26 1683.78 Z M0 1683.78 L0         1678.11 L2.83 1678.11 L2.83 1680.94 L2.83 1683.78 L0 1683.78 Z" class="css-1-1-7"/><path d="M21.26 1683.78 L21.26 1678.11 L18.43 1678.11 L18.43 1680.94M18.43 1683.78 L21.26 1683.78M0 1683.78 L0 1678.11         L2.83 1678.11 L2.83 1680.94M2.83 1683.78 L0 1683.78" class="css-1-1-5"/></g><g><path d="M15.59 1680.94 L14.46 1680.94 L14.46 1683.78 L15.59 1683.78 L15.59 1680.94 Z M0 1680.94 L1.13 1680.94 L1.13         1683.78 L0 1683.78 L0 1680.94 Z" class="css-1-1-7"/><path d="M15.59 1680.94 L14.46 1680.94 L14.46 1683.78 L15.59 1683.78M0 1680.94 L1.13 1680.94 L1.13 1683.78 L0 1683.78" class="css-1-1-5"/></g><g transform="translate(-2.83465,0)"><path d="M21.26 1683.78 L21.26 1678.11" class="css-1-1-5"/><path d="M0 1683.78 L0 1678.11" class="css-1-1-5"/></g><g transform="translate(0,-5.66929)"><path d="M0 1683.78 A15.5919 15.5919 0 0 1 15.59 1668.19" class="css-1-1-5"/></g><g transform="translate(1696.54,1662.52) rotate(90)"><rect x="0" y="1680.94" width="15.5919" height="2.83465" class="css-1-1-8"/></g><g transform="translate(0,3364.72) scale(1,-1)"/><g transform="translate(-1668.19,1696.54) rotate(-90)"/><g transform="translate(-22.534,-5.66929)"/></g><g id="group289-1137" transform="translate(1251.49,-1303.94)"><g><path d="M-2.83 1683.92 L18.43 1683.92 L18.43 1677.97 L-2.83 1677.97 L-2.83 1683.92 Z" class="css-1-1-6"/></g><g transform="translate(-5.66929,2.83465)"/><g transform="translate(-5.66929,-5.66929)"/><g transform="translate(-2.83465,0)"/><g transform="translate(-2.83465,0)"><path d="M21.26 1683.78 L21.26 1678.11 L18.43 1678.11 L18.43 1680.94 L18.43 1683.78 L21.26 1683.78 Z M0 1683.78 L0         1678.11 L2.83 1678.11 L2.83 1680.94 L2.83 1683.78 L0 1683.78 Z" class="css-1-1-7"/><path d="M21.26 1683.78 L21.26 1678.11 L18.43 1678.11 L18.43 1680.94M18.43 1683.78 L21.26 1683.78M0 1683.78 L0 1678.11         L2.83 1678.11 L2.83 1680.94M2.83 1683.78 L0 1683.78" class="css-1-1-5"/></g><g><path d="M15.59 1680.94 L14.46 1680.94 L14.46 1683.78 L15.59 1683.78 L15.59 1680.94 Z M0 1680.94 L1.13 1680.94 L1.13         1683.78 L0 1683.78 L0 1680.94 Z" class="css-1-1-7"/><path d="M15.59 1680.94 L14.46 1680.94 L14.46 1683.78 L15.59 1683.78M0 1680.94 L1.13 1680.94 L1.13 1683.78 L0 1683.78" class="css-1-1-5"/></g><g transform="translate(-2.83465,0)"><path d="M21.26 1683.78 L21.26 1678.11" class="css-1-1-5"/><path d="M0 1683.78 L0 1678.11" class="css-1-1-5"/></g><g transform="translate(0,-5.66929)"><path d="M0 1683.78 A15.5919 15.5919 0 0 1 15.59 1668.19" class="css-1-1-5"/></g><g transform="translate(1696.54,1662.52) rotate(90)"><rect x="0" y="1680.94" width="15.5919" height="2.83465" class="css-1-1-8"/></g><g transform="translate(0,3364.72) scale(1,-1)"/><g transform="translate(-1668.19,1696.54) rotate(-90)"/><g transform="translate(-22.534,-5.66929)"/></g><g id="group263-1167" transform="translate(911.337,-1303.94)"><g><path d="M-2.83 1683.92 L18.43 1683.92 L18.43 1677.97 L-2.83 1677.97 L-2.83 1683.92 Z" class="css-1-1-6"/></g><g transform="translate(-5.66929,2.83465)"/><g transform="translate(-5.66929,-5.66929)"/><g transform="translate(-2.83465,0)"/><g transform="translate(-2.83465,0)"><path d="M21.26 1683.78 L21.26 1678.11 L18.43 1678.11 L18.43 1680.94 L18.43 1683.78 L21.26 1683.78 Z M0 1683.78 L0         1678.11 L2.83 1678.11 L2.83 1680.94 L2.83 1683.78 L0 1683.78 Z" class="css-1-1-7"/><path d="M21.26 1683.78 L21.26 1678.11 L18.43 1678.11 L18.43 1680.94M18.43 1683.78 L21.26 1683.78M0 1683.78 L0 1678.11         L2.83 1678.11 L2.83 1680.94M2.83 1683.78 L0 1683.78" class="css-1-1-5"/></g><g><path d="M15.59 1680.94 L14.46 1680.94 L14.46 1683.78 L15.59 1683.78 L15.59 1680.94 Z M0 1680.94 L1.13 1680.94 L1.13         1683.78 L0 1683.78 L0 1680.94 Z" class="css-1-1-7"/><path d="M15.59 1680.94 L14.46 1680.94 L14.46 1683.78 L15.59 1683.78M0 1680.94 L1.13 1680.94 L1.13 1683.78 L0 1683.78" class="css-1-1-5"/></g><g transform="translate(-2.83465,0)"><path d="M21.26 1683.78 L21.26 1678.11" class="css-1-1-5"/><path d="M0 1683.78 L0 1678.11" class="css-1-1-5"/></g><g transform="translate(0,-5.66929)"><path d="M0 1683.78 A15.5919 15.5919 0 0 1 15.59 1668.19" class="css-1-1-5"/></g><g transform="translate(1696.54,1662.52) rotate(90)"><rect x="0" y="1680.94" width="15.5919" height="2.83465" class="css-1-1-8"/></g><g transform="translate(0,3364.72) scale(1,-1)"/><g transform="translate(-1668.19,1696.54) rotate(-90)"/><g transform="translate(-22.534,-5.66929)"/></g><g id="group237-1197" transform="translate(571.18,-1303.94)"><g><path d="M-2.83 1683.92 L18.43 1683.92 L18.43 1677.97 L-2.83 1677.97 L-2.83 1683.92 Z" class="css-1-1-6"/></g><g transform="translate(-5.66929,2.83465)"/><g transform="translate(-5.66929,-5.66929)"/><g transform="translate(-2.83465,0)"/><g transform="translate(-2.83465,0)"><path d="M21.26 1683.78 L21.26 1678.11 L18.43 1678.11 L18.43 1680.94 L18.43 1683.78 L21.26 1683.78 Z M0 1683.78 L0         1678.11 L2.83 1678.11 L2.83 1680.94 L2.83 1683.78 L0 1683.78 Z" class="css-1-1-7"/><path d="M21.26 1683.78 L21.26 1678.11 L18.43 1678.11 L18.43 1680.94M18.43 1683.78 L21.26 1683.78M0 1683.78 L0 1678.11         L2.83 1678.11 L2.83 1680.94M2.83 1683.78 L0 1683.78" class="css-1-1-5"/></g><g><path d="M15.59 1680.94 L14.46 1680.94 L14.46 1683.78 L15.59 1683.78 L15.59 1680.94 Z M0 1680.94 L1.13 1680.94 L1.13         1683.78 L0 1683.78 L0 1680.94 Z" class="css-1-1-7"/><path d="M15.59 1680.94 L14.46 1680.94 L14.46 1683.78 L15.59 1683.78M0 1680.94 L1.13 1680.94 L1.13 1683.78 L0 1683.78" class="css-1-1-5"/></g><g transform="translate(-2.83465,0)"><path d="M21.26 1683.78 L21.26 1678.11" class="css-1-1-5"/><path d="M0 1683.78 L0 1678.11" class="css-1-1-5"/></g><g transform="translate(0,-5.66929)"><path d="M0 1683.78 A15.5919 15.5919 0 0 1 15.59 1668.19" class="css-1-1-5"/></g><g transform="translate(1696.54,1662.52) rotate(90)"><rect x="0" y="1680.94" width="15.5919" height="2.83465" class="css-1-1-8"/></g><g transform="translate(0,3364.72) scale(1,-1)"/><g transform="translate(-1668.19,1696.54) rotate(-90)"/><g transform="translate(-22.534,-5.66929)"/></g><g id="group224-1227" transform="translate(401.101,-1303.94)"><g><path d="M-2.83 1683.92 L18.43 1683.92 L18.43 1677.97 L-2.83 1677.97 L-2.83 1683.92 Z" class="css-1-1-6"/></g><g transform="translate(-5.66929,2.83465)"/><g transform="translate(-5.66929,-5.66929)"/><g transform="translate(-2.83465,0)"/><g transform="translate(-2.83465,0)"><path d="M21.26 1683.78 L21.26 1678.11 L18.43 1678.11 L18.43 1680.94 L18.43 1683.78 L21.26 1683.78 Z M0 1683.78 L0         1678.11 L2.83 1678.11 L2.83 1680.94 L2.83 1683.78 L0 1683.78 Z" class="css-1-1-7"/><path d="M21.26 1683.78 L21.26 1678.11 L18.43 1678.11 L18.43 1680.94M18.43 1683.78 L21.26 1683.78M0 1683.78 L0 1678.11         L2.83 1678.11 L2.83 1680.94M2.83 1683.78 L0 1683.78" class="css-1-1-5"/></g><g><path d="M15.59 1680.94 L14.46 1680.94 L14.46 1683.78 L15.59 1683.78 L15.59 1680.94 Z M0 1680.94 L1.13 1680.94 L1.13         1683.78 L0 1683.78 L0 1680.94 Z" class="css-1-1-7"/><path d="M15.59 1680.94 L14.46 1680.94 L14.46 1683.78 L15.59 1683.78M0 1680.94 L1.13 1680.94 L1.13 1683.78 L0 1683.78" class="css-1-1-5"/></g><g transform="translate(-2.83465,0)"><path d="M21.26 1683.78 L21.26 1678.11" class="css-1-1-5"/><path d="M0 1683.78 L0 1678.11" class="css-1-1-5"/></g><g transform="translate(0,-5.66929)"><path d="M0 1683.78 A15.5919 15.5919 0 0 1 15.59 1668.19" class="css-1-1-5"/></g><g transform="translate(1696.54,1662.52) rotate(90)"><rect x="0" y="1680.94" width="15.5919" height="2.83465" class="css-1-1-8"/></g><g transform="translate(0,3364.72) scale(1,-1)"/><g transform="translate(-1668.19,1696.54) rotate(-90)"/><g transform="translate(-22.534,-5.66929)"/></g><g id="group471-1257" transform="translate(555.909,2852.38) rotate(-179.77)"><g><path d="M-2.83 1683.92 L18.43 1683.92 L18.43 1677.97 L-2.83 1677.97 L-2.83 1683.92 Z" class="css-1-1-6"/></g><g transform="translate(-5.66929,2.83465)"/><g transform="translate(-5.66929,-5.66929)"/><g transform="translate(-2.83465,0)"/><g transform="translate(-2.83465,0)"><path d="M21.26 1683.78 L21.26 1678.11 L18.43 1678.11 L18.43 1680.94 L18.43 1683.78 L21.26 1683.78 Z M0 1683.78 L0         1678.11 L2.83 1678.11 L2.83 1680.94 L2.83 1683.78 L0 1683.78 Z" class="css-1-1-7"/><path d="M21.26 1683.78 L21.26 1678.11 L18.43 1678.11 L18.43 1680.94M18.43 1683.78 L21.26 1683.78M0 1683.78 L0 1678.11         L2.83 1678.11 L2.83 1680.94M2.83 1683.78 L0 1683.78" class="css-1-1-5"/></g><g><path d="M15.59 1680.94 L14.46 1680.94 L14.46 1683.78 L15.59 1683.78 L15.59 1680.94 Z M0 1680.94 L1.13 1680.94 L1.13         1683.78 L0 1683.78 L0 1680.94 Z" class="css-1-1-7"/><path d="M15.59 1680.94 L14.46 1680.94 L14.46 1683.78 L15.59 1683.78M0 1680.94 L1.13 1680.94 L1.13 1683.78 L0 1683.78" class="css-1-1-5"/></g><g transform="translate(-2.83465,0)"><path d="M21.26 1683.78 L21.26 1678.11" class="css-1-1-5"/><path d="M0 1683.78 L0 1678.11" class="css-1-1-5"/></g><g transform="translate(0,-5.66929)"><path d="M0 1683.78 A15.5919 15.5919 0 0 1 15.59 1668.19" class="css-1-1-5"/></g><g transform="translate(1696.54,1662.52) rotate(90)"><rect x="0" y="1680.94" width="15.5919" height="2.83465" class="css-1-1-8"/></g><g transform="translate(0,3364.72) scale(1,-1)"/><g transform="translate(-1668.19,1696.54) rotate(-90)"/><g transform="translate(-22.534,-5.66929)"/></g><g id="group484-1287" transform="translate(385.83,2851.7) rotate(-179.77)"><g><path d="M-2.83 1683.92 L18.43 1683.92 L18.43 1677.97 L-2.83 1677.97 L-2.83 1683.92 Z" class="css-1-1-6"/></g><g transform="translate(-5.66929,2.83465)"/><g transform="translate(-5.66929,-5.66929)"/><g transform="translate(-2.83465,0)"/><g transform="translate(-2.83465,0)"><path d="M21.26 1683.78 L21.26 1678.11 L18.43 1678.11 L18.43 1680.94 L18.43 1683.78 L21.26 1683.78 Z M0 1683.78 L0         1678.11 L2.83 1678.11 L2.83 1680.94 L2.83 1683.78 L0 1683.78 Z" class="css-1-1-7"/><path d="M21.26 1683.78 L21.26 1678.11 L18.43 1678.11 L18.43 1680.94M18.43 1683.78 L21.26 1683.78M0 1683.78 L0 1678.11         L2.83 1678.11 L2.83 1680.94M2.83 1683.78 L0 1683.78" class="css-1-1-5"/></g><g><path d="M15.59 1680.94 L14.46 1680.94 L14.46 1683.78 L15.59 1683.78 L15.59 1680.94 Z M0 1680.94 L1.13 1680.94 L1.13         1683.78 L0 1683.78 L0 1680.94 Z" class="css-1-1-7"/><path d="M15.59 1680.94 L14.46 1680.94 L14.46 1683.78 L15.59 1683.78M0 1680.94 L1.13 1680.94 L1.13 1683.78 L0 1683.78" class="css-1-1-5"/></g><g transform="translate(-2.83465,0)"><path d="M21.26 1683.78 L21.26 1678.11" class="css-1-1-5"/><path d="M0 1683.78 L0 1678.11" class="css-1-1-5"/></g><g transform="translate(0,-5.66929)"><path d="M0 1683.78 A15.5919 15.5919 0 0 1 15.59 1668.19" class="css-1-1-5"/></g><g transform="translate(1696.54,1662.52) rotate(90)"><rect x="0" y="1680.94" width="15.5919" height="2.83465" class="css-1-1-8"/></g><g transform="translate(0,3364.72) scale(1,-1)"/><g transform="translate(-1668.19,1696.54) rotate(-90)"/><g transform="translate(-22.534,-5.66929)"/></g><g id="group458-1317" transform="translate(726.554,2853.07) rotate(-179.77)"><g><path d="M-2.83 1683.92 L18.43 1683.92 L18.43 1677.97 L-2.83 1677.97 L-2.83 1683.92 Z" class="css-1-1-6"/></g><g transform="translate(-5.66929,2.83465)"/><g transform="translate(-5.66929,-5.66929)"/><g transform="translate(-2.83465,0)"/><g transform="translate(-2.83465,0)"><path d="M21.26 1683.78 L21.26 1678.11 L18.43 1678.11 L18.43 1680.94 L18.43 1683.78 L21.26 1683.78 Z M0 1683.78 L0         1678.11 L2.83 1678.11 L2.83 1680.94 L2.83 1683.78 L0 1683.78 Z" class="css-1-1-7"/><path d="M21.26 1683.78 L21.26 1678.11 L18.43 1678.11 L18.43 1680.94M18.43 1683.78 L21.26 1683.78M0 1683.78 L0 1678.11         L2.83 1678.11 L2.83 1680.94M2.83 1683.78 L0 1683.78" class="css-1-1-5"/></g><g><path d="M15.59 1680.94 L14.46 1680.94 L14.46 1683.78 L15.59 1683.78 L15.59 1680.94 Z M0 1680.94 L1.13 1680.94 L1.13         1683.78 L0 1683.78 L0 1680.94 Z" class="css-1-1-7"/><path d="M15.59 1680.94 L14.46 1680.94 L14.46 1683.78 L15.59 1683.78M0 1680.94 L1.13 1680.94 L1.13 1683.78 L0 1683.78" class="css-1-1-5"/></g><g transform="translate(-2.83465,0)"><path d="M21.26 1683.78 L21.26 1678.11" class="css-1-1-5"/><path d="M0 1683.78 L0 1678.11" class="css-1-1-5"/></g><g transform="translate(0,-5.66929)"><path d="M0 1683.78 A15.5919 15.5919 0 0 1 15.59 1668.19" class="css-1-1-5"/></g><g transform="translate(1696.54,1662.52) rotate(90)"><rect x="0" y="1680.94" width="15.5919" height="2.83465" class="css-1-1-8"/></g><g transform="translate(0,3364.72) scale(1,-1)"/><g transform="translate(-1668.19,1696.54) rotate(-90)"/><g transform="translate(-22.534,-5.66929)"/></g><g id="group445-1347" transform="translate(896.066,2853.75) rotate(-179.77)"><g><path d="M-2.83 1683.92 L18.43 1683.92 L18.43 1677.97 L-2.83 1677.97 L-2.83 1683.92 Z" class="css-1-1-6"/></g><g transform="translate(-5.66929,2.83465)"/><g transform="translate(-5.66929,-5.66929)"/><g transform="translate(-2.83465,0)"/><g transform="translate(-2.83465,0)"><path d="M21.26 1683.78 L21.26 1678.11 L18.43 1678.11 L18.43 1680.94 L18.43 1683.78 L21.26 1683.78 Z M0 1683.78 L0         1678.11 L2.83 1678.11 L2.83 1680.94 L2.83 1683.78 L0 1683.78 Z" class="css-1-1-7"/><path d="M21.26 1683.78 L21.26 1678.11 L18.43 1678.11 L18.43 1680.94M18.43 1683.78 L21.26 1683.78M0 1683.78 L0 1678.11         L2.83 1678.11 L2.83 1680.94M2.83 1683.78 L0 1683.78" class="css-1-1-5"/></g><g><path d="M15.59 1680.94 L14.46 1680.94 L14.46 1683.78 L15.59 1683.78 L15.59 1680.94 Z M0 1680.94 L1.13 1680.94 L1.13         1683.78 L0 1683.78 L0 1680.94 Z" class="css-1-1-7"/><path d="M15.59 1680.94 L14.46 1680.94 L14.46 1683.78 L15.59 1683.78M0 1680.94 L1.13 1680.94 L1.13 1683.78 L0 1683.78" class="css-1-1-5"/></g><g transform="translate(-2.83465,0)"><path d="M21.26 1683.78 L21.26 1678.11" class="css-1-1-5"/><path d="M0 1683.78 L0 1678.11" class="css-1-1-5"/></g><g transform="translate(0,-5.66929)"><path d="M0 1683.78 A15.5919 15.5919 0 0 1 15.59 1668.19" class="css-1-1-5"/></g><g transform="translate(1696.54,1662.52) rotate(90)"><rect x="0" y="1680.94" width="15.5919" height="2.83465" class="css-1-1-8"/></g><g transform="translate(0,3364.72) scale(1,-1)"/><g transform="translate(-1668.19,1696.54) rotate(-90)"/><g transform="translate(-22.534,-5.66929)"/></g><g id="group432-1377" transform="translate(1066.14,2854.43) rotate(-179.77)"><g><path d="M-2.83 1683.92 L18.43 1683.92 L18.43 1677.97 L-2.83 1677.97 L-2.83 1683.92 Z" class="css-1-1-6"/></g><g transform="translate(-5.66929,2.83465)"/><g transform="translate(-5.66929,-5.66929)"/><g transform="translate(-2.83465,0)"/><g transform="translate(-2.83465,0)"><path d="M21.26 1683.78 L21.26 1678.11 L18.43 1678.11 L18.43 1680.94 L18.43 1683.78 L21.26 1683.78 Z M0 1683.78 L0         1678.11 L2.83 1678.11 L2.83 1680.94 L2.83 1683.78 L0 1683.78 Z" class="css-1-1-7"/><path d="M21.26 1683.78 L21.26 1678.11 L18.43 1678.11 L18.43 1680.94M18.43 1683.78 L21.26 1683.78M0 1683.78 L0 1678.11         L2.83 1678.11 L2.83 1680.94M2.83 1683.78 L0 1683.78" class="css-1-1-5"/></g><g><path d="M15.59 1680.94 L14.46 1680.94 L14.46 1683.78 L15.59 1683.78 L15.59 1680.94 Z M0 1680.94 L1.13 1680.94 L1.13         1683.78 L0 1683.78 L0 1680.94 Z" class="css-1-1-7"/><path d="M15.59 1680.94 L14.46 1680.94 L14.46 1683.78 L15.59 1683.78M0 1680.94 L1.13 1680.94 L1.13 1683.78 L0 1683.78" class="css-1-1-5"/></g><g transform="translate(-2.83465,0)"><path d="M21.26 1683.78 L21.26 1678.11" class="css-1-1-5"/><path d="M0 1683.78 L0 1678.11" class="css-1-1-5"/></g><g transform="translate(0,-5.66929)"><path d="M0 1683.78 A15.5919 15.5919 0 0 1 15.59 1668.19" class="css-1-1-5"/></g><g transform="translate(1696.54,1662.52) rotate(90)"><rect x="0" y="1680.94" width="15.5919" height="2.83465" class="css-1-1-8"/></g><g transform="translate(0,3364.72) scale(1,-1)"/><g transform="translate(-1668.19,1696.54) rotate(-90)"/><g transform="translate(-22.534,-5.66929)"/></g><g id="group419-1407" transform="translate(1236.22,2855.11) rotate(-179.77)"><g><path d="M-2.83 1683.92 L18.43 1683.92 L18.43 1677.97 L-2.83 1677.97 L-2.83 1683.92 Z" class="css-1-1-6"/></g><g transform="translate(-5.66929,2.83465)"/><g transform="translate(-5.66929,-5.66929)"/><g transform="translate(-2.83465,0)"/><g transform="translate(-2.83465,0)"><path d="M21.26 1683.78 L21.26 1678.11 L18.43 1678.11 L18.43 1680.94 L18.43 1683.78 L21.26 1683.78 Z M0 1683.78 L0         1678.11 L2.83 1678.11 L2.83 1680.94 L2.83 1683.78 L0 1683.78 Z" class="css-1-1-7"/><path d="M21.26 1683.78 L21.26 1678.11 L18.43 1678.11 L18.43 1680.94M18.43 1683.78 L21.26 1683.78M0 1683.78 L0 1678.11         L2.83 1678.11 L2.83 1680.94M2.83 1683.78 L0 1683.78" class="css-1-1-5"/></g><g><path d="M15.59 1680.94 L14.46 1680.94 L14.46 1683.78 L15.59 1683.78 L15.59 1680.94 Z M0 1680.94 L1.13 1680.94 L1.13         1683.78 L0 1683.78 L0 1680.94 Z" class="css-1-1-7"/><path d="M15.59 1680.94 L14.46 1680.94 L14.46 1683.78 L15.59 1683.78M0 1680.94 L1.13 1680.94 L1.13 1683.78 L0 1683.78" class="css-1-1-5"/></g><g transform="translate(-2.83465,0)"><path d="M21.26 1683.78 L21.26 1678.11" class="css-1-1-5"/><path d="M0 1683.78 L0 1678.11" class="css-1-1-5"/></g><g transform="translate(0,-5.66929)"><path d="M0 1683.78 A15.5919 15.5919 0 0 1 15.59 1668.19" class="css-1-1-5"/></g><g transform="translate(1696.54,1662.52) rotate(90)"><rect x="0" y="1680.94" width="15.5919" height="2.83465" class="css-1-1-8"/></g><g transform="translate(0,3364.72) scale(1,-1)"/><g transform="translate(-1668.19,1696.54) rotate(-90)"/><g transform="translate(-22.534,-5.66929)"/></g><g id="group406-1437" transform="translate(1406.3,2855.79) rotate(-179.77)"><g><path d="M-2.83 1683.92 L18.43 1683.92 L18.43 1677.97 L-2.83 1677.97 L-2.83 1683.92 Z" class="css-1-1-6"/></g><g transform="translate(-5.66929,2.83465)"/><g transform="translate(-5.66929,-5.66929)"/><g transform="translate(-2.83465,0)"/><g transform="translate(-2.83465,0)"><path d="M21.26 1683.78 L21.26 1678.11 L18.43 1678.11 L18.43 1680.94 L18.43 1683.78 L21.26 1683.78 Z M0 1683.78 L0         1678.11 L2.83 1678.11 L2.83 1680.94 L2.83 1683.78 L0 1683.78 Z" class="css-1-1-7"/><path d="M21.26 1683.78 L21.26 1678.11 L18.43 1678.11 L18.43 1680.94M18.43 1683.78 L21.26 1683.78M0 1683.78 L0 1678.11         L2.83 1678.11 L2.83 1680.94M2.83 1683.78 L0 1683.78" class="css-1-1-5"/></g><g><path d="M15.59 1680.94 L14.46 1680.94 L14.46 1683.78 L15.59 1683.78 L15.59 1680.94 Z M0 1680.94 L1.13 1680.94 L1.13         1683.78 L0 1683.78 L0 1680.94 Z" class="css-1-1-7"/><path d="M15.59 1680.94 L14.46 1680.94 L14.46 1683.78 L15.59 1683.78M0 1680.94 L1.13 1680.94 L1.13 1683.78 L0 1683.78" class="css-1-1-5"/></g><g transform="translate(-2.83465,0)"><path d="M21.26 1683.78 L21.26 1678.11" class="css-1-1-5"/><path d="M0 1683.78 L0 1678.11" class="css-1-1-5"/></g><g transform="translate(0,-5.66929)"><path d="M0 1683.78 A15.5919 15.5919 0 0 1 15.59 1668.19" class="css-1-1-5"/></g><g transform="translate(1696.54,1662.52) rotate(90)"><rect x="0" y="1680.94" width="15.5919" height="2.83465" class="css-1-1-8"/></g><g transform="translate(0,3364.72) scale(1,-1)"/><g transform="translate(-1668.19,1696.54) rotate(-90)"/><g transform="translate(-22.534,-5.66929)"/></g><g id="group536-1467" transform="translate(-1309.55,571.766) rotate(-89.9957)"><g><path d="M-2.83 1683.92 L18.43 1683.92 L18.43 1677.97 L-2.83 1677.97 L-2.83 1683.92 Z" class="css-1-1-6"/></g><g transform="translate(-5.66929,2.83465)"/><g transform="translate(-5.66929,-5.66929)"/><g transform="translate(-2.83465,0)"/><g transform="translate(-2.83465,0)"><path d="M21.26 1683.78 L21.26 1678.11 L18.43 1678.11 L18.43 1680.94 L18.43 1683.78 L21.26 1683.78 Z M0 1683.78 L0         1678.11 L2.83 1678.11 L2.83 1680.94 L2.83 1683.78 L0 1683.78 Z" class="css-1-1-7"/><path d="M21.26 1683.78 L21.26 1678.11 L18.43 1678.11 L18.43 1680.94M18.43 1683.78 L21.26 1683.78M0 1683.78 L0 1678.11         L2.83 1678.11 L2.83 1680.94M2.83 1683.78 L0 1683.78" class="css-1-1-5"/></g><g><path d="M15.59 1680.94 L14.46 1680.94 L14.46 1683.78 L15.59 1683.78 L15.59 1680.94 Z M0 1680.94 L1.13 1680.94 L1.13         1683.78 L0 1683.78 L0 1680.94 Z" class="css-1-1-7"/><path d="M15.59 1680.94 L14.46 1680.94 L14.46 1683.78 L15.59 1683.78M0 1680.94 L1.13 1680.94 L1.13 1683.78 L0 1683.78" class="css-1-1-5"/></g><g transform="translate(-2.83465,0)"><path d="M21.26 1683.78 L21.26 1678.11" class="css-1-1-5"/><path d="M0 1683.78 L0 1678.11" class="css-1-1-5"/></g><g transform="translate(0,-5.66929)"><path d="M0 1683.78 A15.5919 15.5919 0 0 1 15.59 1668.19" class="css-1-1-5"/></g><g transform="translate(1696.54,1662.52) rotate(90)"><rect x="0" y="1680.94" width="15.5919" height="2.83465" class="css-1-1-8"/></g><g transform="translate(0,3364.72) scale(1,-1)"/><g transform="translate(-1668.19,1696.54) rotate(-90)"/><g transform="translate(-22.534,-5.66929)"/></g><g id="group276-1497" transform="translate(1081.42,-1303.94)"><g><path d="M-2.83 1683.92 L18.43 1683.92 L18.43 1677.97 L-2.83 1677.97 L-2.83 1683.92 Z" class="css-1-1-6"/></g><g transform="translate(-5.66929,2.83465)"/><g transform="translate(-5.66929,-5.66929)"/><g transform="translate(-2.83465,0)"/><g transform="translate(-2.83465,0)"><path d="M21.26 1683.78 L21.26 1678.11 L18.43 1678.11 L18.43 1680.94 L18.43 1683.78 L21.26 1683.78 Z M0 1683.78 L0         1678.11 L2.83 1678.11 L2.83 1680.94 L2.83 1683.78 L0 1683.78 Z" class="css-1-1-7"/><path d="M21.26 1683.78 L21.26 1678.11 L18.43 1678.11 L18.43 1680.94M18.43 1683.78 L21.26 1683.78M0 1683.78 L0 1678.11         L2.83 1678.11 L2.83 1680.94M2.83 1683.78 L0 1683.78" class="css-1-1-5"/></g><g><path d="M15.59 1680.94 L14.46 1680.94 L14.46 1683.78 L15.59 1683.78 L15.59 1680.94 Z M0 1680.94 L1.13 1680.94 L1.13         1683.78 L0 1683.78 L0 1680.94 Z" class="css-1-1-7"/><path d="M15.59 1680.94 L14.46 1680.94 L14.46 1683.78 L15.59 1683.78M0 1680.94 L1.13 1680.94 L1.13 1683.78 L0 1683.78" class="css-1-1-5"/></g><g transform="translate(-2.83465,0)"><path d="M21.26 1683.78 L21.26 1678.11" class="css-1-1-5"/><path d="M0 1683.78 L0 1678.11" class="css-1-1-5"/></g><g transform="translate(0,-5.66929)"><path d="M0 1683.78 A15.5919 15.5919 0 0 1 15.59 1668.19" class="css-1-1-5"/></g><g transform="translate(1696.54,1662.52) rotate(90)"><rect x="0" y="1680.94" width="15.5919" height="2.83465" class="css-1-1-8"/></g><g transform="translate(0,3364.72) scale(1,-1)"/><g transform="translate(-1668.19,1696.54) rotate(-90)"/><g transform="translate(-22.534,-5.66929)"/></g><g id="group250-1527" transform="translate(741.258,-1303.94)"><g><path d="M-2.83 1683.92 L18.43 1683.92 L18.43 1677.97 L-2.83 1677.97 L-2.83 1683.92 Z" class="css-1-1-6"/></g><g transform="translate(-5.66929,2.83465)"/><g transform="translate(-5.66929,-5.66929)"/><g transform="translate(-2.83465,0)"/><g transform="translate(-2.83465,0)"><path d="M21.26 1683.78 L21.26 1678.11 L18.43 1678.11 L18.43 1680.94 L18.43 1683.78 L21.26 1683.78 Z M0 1683.78 L0         1678.11 L2.83 1678.11 L2.83 1680.94 L2.83 1683.78 L0 1683.78 Z" class="css-1-1-7"/><path d="M21.26 1683.78 L21.26 1678.11 L18.43 1678.11 L18.43 1680.94M18.43 1683.78 L21.26 1683.78M0 1683.78 L0 1678.11         L2.83 1678.11 L2.83 1680.94M2.83 1683.78 L0 1683.78" class="css-1-1-5"/></g><g><path d="M15.59 1680.94 L14.46 1680.94 L14.46 1683.78 L15.59 1683.78 L15.59 1680.94 Z M0 1680.94 L1.13 1680.94 L1.13         1683.78 L0 1683.78 L0 1680.94 Z" class="css-1-1-7"/><path d="M15.59 1680.94 L14.46 1680.94 L14.46 1683.78 L15.59 1683.78M0 1680.94 L1.13 1680.94 L1.13 1683.78 L0 1683.78" class="css-1-1-5"/></g><g transform="translate(-2.83465,0)"><path d="M21.26 1683.78 L21.26 1678.11" class="css-1-1-5"/><path d="M0 1683.78 L0 1678.11" class="css-1-1-5"/></g><g transform="translate(0,-5.66929)"><path d="M0 1683.78 A15.5919 15.5919 0 0 1 15.59 1668.19" class="css-1-1-5"/></g><g transform="translate(1696.54,1662.52) rotate(90)"><rect x="0" y="1680.94" width="15.5919" height="2.83465" class="css-1-1-8"/></g><g transform="translate(0,3364.72) scale(1,-1)"/><g transform="translate(-1668.19,1696.54) rotate(-90)"/><g transform="translate(-22.534,-5.66929)"/></g></g></svg>