<svg xmlns="http://www.w3.org/2000/svg" id="floor-1-2" version="1.0" zoomAndPan="magnify" color-interpolation-filters="sRGB" contentScriptType="text/ecmascript" contentStyleType="text/css" width="100%" height="100%" viewBox="0 0 2400 1400" class="css-1-2-12"><style type="text/css"><![CDATA[
	
		.css-1-2-1 {fill:#ffffff;stroke:#000000;stroke-linecap:round;stroke-linejoin:round;stroke-width:2.00}
		.css-1-2-2 {fill:#ffffff;stroke:#000000;stroke-linecap:round;stroke-linejoin:round;stroke-width:4.08}
		.css-1-2-3 {fill:#b3b3b3}
		.css-1-2-4 {fill:#b3b3b3;stroke:none;stroke-linecap:round;stroke-linejoin:round;stroke-width:0.72;visibility:hidden}
		.css-1-2-5 {stroke:#000000;stroke-linecap:round;stroke-linejoin:round;stroke-width:0.24}
		.css-1-2-6 {fill:#b3b3b3;stroke:none;stroke-linecap:round;stroke-linejoin:round;stroke-width:0.72}
		.css-1-2-7 {fill:#ffffff;stroke:#ffffff;stroke-linecap:round;stroke-linejoin:round;stroke-width:0.24}
		.css-1-2-8 {fill:#ffffff}
		.css-1-2-9 {fill:#ffffff;stroke:#000000;stroke-linecap:round;stroke-linejoin:round;stroke-width:0.24}
		.css-1-2-10 {stroke:#000000;stroke-dasharray:1.68,1.2;stroke-linecap:round;stroke-linejoin:round;stroke-width:0.24}
		.css-1-2-11 {fill:#ffffff;stroke:#000000;stroke-dasharray:1.68,1.2;stroke-linecap:round;stroke-linejoin:round;stroke-width:0.24}
		.css-1-2-12 {fill:none;fill-rule:evenodd;font-size:12;overflow:visible;stroke-linecap:square;stroke-miterlimit:3}
	
	]]></style><g><g id="group111-1" transform="translate(255.118,-1196.22)"><g><rect x="0" y="1405.98" width="334.488" height="277.795" class="css-1-2-1" id="lot-1-2-1" l-desc="Information not available" l-title="lot-1-2-1" onclick="javascript: selectSvgLot(evt, this);" onmouseout="javascript: hoverSvgLot(evt, this);" onmouseover="javascript: hoverSvgLot(evt, this);" style="cursor: pointer;"/></g><g/></g><g id="group160-5" transform="translate(595.276,-1196.22)"><g><rect x="0" y="1405.98" width="277.795" height="277.795" class="css-1-2-1" id="lot-1-2-2" l-desc="Information not available" l-title="lot-1-2-2" onclick="javascript: selectSvgLot(evt, this);" onmouseout="javascript: hoverSvgLot(evt, this);" onmouseover="javascript: hoverSvgLot(evt, this);" style="cursor: pointer;"/></g><g/></g><g id="group282-9" transform="translate(198.425,-374.173)"><g><rect x="0" y="1377.64" width="249.449" height="306.142" class="css-1-2-1" id="lot-1-2-3" l-desc="Information not available" l-title="lot-1-2-3" onclick="javascript: selectSvgLot(evt, this);" onmouseout="javascript: hoverSvgLot(evt, this);" onmouseover="javascript: hoverSvgLot(evt, this);" style="cursor: pointer;"/></g><g/></g><g id="group318-13" transform="translate(453.543,-374.173)"><g><path d="M170.08 1491.02 L0 1491.02 L0 1683.78 L170.08 1683.78 L362.83 1683.78 L170.08 1491.02 Z" class="css-1-2-1" id="lot-1-2-4" l-desc="Information not available" l-title="lot-1-2-4" onclick="javascript: selectSvgLot(evt, this);" onmouseout="javascript: hoverSvgLot(evt, this);" onmouseover="javascript: hoverSvgLot(evt, this);" style="cursor: pointer;"/></g><g/></g><g id="group316-17" transform="translate(941.325,-374.173)"><g><path d="M311.22 1683.78 L325.19 1683.78 L844.5 1683.78 L844.5 1377.64 L306.49 1377.64 L306.49 1377.98 L306.14 1377.64         L0 1683.78 L311.22 1683.78 Z" class="css-1-2-1" id="lot-1-2-5" l-desc="Information not available" l-title="lot-1-2-5" onclick="javascript: selectSvgLot(evt, this);" onmouseout="javascript: hoverSvgLot(evt, this);" onmouseover="javascript: hoverSvgLot(evt, this);" style="cursor: pointer;"/></g><g/></g><g id="group213-21" transform="translate(680.315,-774.992)"><g><rect x="0" y="1353.26" width="510.236" height="330.52" class="css-1-2-1" id="lot-1-2-6" l-desc="Information not available" l-title="lot-1-2-6" onclick="javascript: selectSvgLot(evt, this);" onmouseout="javascript: hoverSvgLot(evt, this);" onmouseover="javascript: hoverSvgLot(evt, this);" style="cursor: pointer;"/></g><g/></g><g id="group291-25" transform="translate(1303.94,-765.354)"><g><rect x="0" y="1343.62" width="396.85" height="340.157" class="css-1-2-1" id="lot-1-2-7" l-desc="Information not available" l-title="lot-1-2-7" onclick="javascript: selectSvgLot(evt, this);" onmouseout="javascript: hoverSvgLot(evt, this);" onmouseover="javascript: hoverSvgLot(evt, this);" style="cursor: pointer;"/></g><g/></g><g id="group182-29" transform="translate(878.74,-1196.22)"><g><rect x="0" y="1405.98" width="907.087" height="277.795" class="css-1-2-1" id="lot-1-2-8" l-desc="Information not available" l-title="lot-1-2-8" onclick="javascript: selectSvgLot(evt, this);" onmouseout="javascript: hoverSvgLot(evt, this);" onmouseover="javascript: hoverSvgLot(evt, this);" style="cursor: pointer;"/></g><g/></g><g id="group30-33" transform="translate(-1485.35,1315.28) rotate(-90)"><g><path d="M-0 1678.11 L1111.18 1678.11 L1105.51 1683.78 L5.67 1683.78 L-0 1678.11 Z" class="css-1-2-3"/></g><g transform="translate(-1184.94,2874.39) rotate(-135)"><rect x="0" y="1683.21" width="8.01759" height="0.566929" class="css-1-2-4"/></g><g transform="translate(2301.79,2868.72) rotate(135)"><rect x="0" y="1683.21" width="8.01759" height="0.566929" class="css-1-2-4"/></g><g/><g><path d="M-0 1678.11 L1111.18 1678.11" class="css-1-2-5"/><path d="M5.67 1683.78 L1105.51 1683.78" class="css-1-2-5"/></g><g transform="translate(512.315,-5.66929)"/></g><g id="group76-49" transform="translate(198.425,-1190.55)"><g><path d="M0 1678.11 L51.02 1678.11 L56.69 1683.78 L0 1683.78 L0 1678.11 Z" class="css-1-2-3"/></g><g transform="translate(-1683.78,1683.78) rotate(-90)"><rect x="0" y="1683.21" width="5.66929" height="0.566929" class="css-1-2-6"/></g><g transform="translate(1241.64,487.498) rotate(45)"><rect x="0" y="1683.21" width="8.01759" height="0.566929" class="css-1-2-4"/></g><g/><g><path d="M0 1678.11 L51.02 1678.11" class="css-1-2-5"/><path d="M0 1683.78 L56.69 1683.78" class="css-1-2-5"/></g><g transform="translate(-7.0389,-5.66929)"/></g><g id="group83-65" transform="translate(-1428.66,493.228) rotate(-90)"><g><path d="M5.67 1678.11 L289.13 1678.11 L283.46 1683.78 L0 1683.78 L5.67 1678.11 Z" class="css-1-2-3"/></g><g transform="translate(-1190.61,493.168) rotate(-45)"><rect x="0" y="1683.21" width="8.01759" height="0.566929" class="css-1-2-4"/></g><g transform="translate(1479.75,2868.72) rotate(135)"><rect x="0" y="1683.21" width="8.01759" height="0.566929" class="css-1-2-4"/></g><g/><g><path d="M5.67 1678.11 L289.13 1678.11" class="css-1-2-5"/><path d="M0 1683.78 L283.46 1683.78" class="css-1-2-5"/></g><g transform="translate(106.347,-5.66929)"/></g><g id="group90-81" transform="translate(255.118,-1474.02)"><g><path d="M-5.67 1678.11 L1536.38 1678.11 L1530.71 1683.78 L0 1683.78 L-5.67 1678.11 Z" class="css-1-2-3"/></g><g transform="translate(-1190.61,2874.39) rotate(-135)"><rect x="0" y="1683.21" width="8.01759" height="0.566929" class="css-1-2-4"/></g><g transform="translate(2726.99,2868.72) rotate(135)"><rect x="0" y="1683.21" width="8.01759" height="0.566929" class="css-1-2-4"/></g><g/><g><path d="M-5.67 1678.11 L1536.38 1678.11" class="css-1-2-5"/><path d="M0 1683.78 L1530.71 1683.78" class="css-1-2-5"/></g><g transform="translate(724.914,-5.66929)"/></g><g id="group97-97" transform="translate(3469.61,209.764) rotate(90)"><g><path d="M-5.67 1678.11 L1105.51 1678.11 L1099.84 1683.78 L0 1683.78 L-5.67 1678.11 Z" class="css-1-2-3"/></g><g transform="translate(-1190.61,2874.39) rotate(-135)"><rect x="0" y="1683.21" width="8.01759" height="0.566929" class="css-1-2-4"/></g><g transform="translate(2296.12,2868.72) rotate(135)"><rect x="0" y="1683.21" width="8.01759" height="0.566929" class="css-1-2-4"/></g><g/><g><path d="M-5.67 1678.11 L1105.51 1678.11" class="css-1-2-5"/><path d="M0 1683.78 L1099.84 1683.78" class="css-1-2-5"/></g><g transform="translate(512.315,-5.66929)"/></g><g id="group104-113" transform="translate(198.425,-368.504)"><g><path d="M-0 1678.11 L1587.4 1678.11 L1593.07 1683.78 L-5.67 1683.78 L-0 1678.11 Z" class="css-1-2-3"/></g><g transform="translate(-1196.28,493.168) rotate(-45)"><rect x="0" y="1683.21" width="8.01759" height="0.566929" class="css-1-2-4"/></g><g transform="translate(2778.01,487.498) rotate(45)"><rect x="0" y="1683.21" width="8.01759" height="0.566929" class="css-1-2-4"/></g><g/><g><path d="M-0 1678.11 L1587.4 1678.11" class="css-1-2-5"/><path d="M-5.67 1683.78 L1593.07 1683.78" class="css-1-2-5"/></g><g transform="translate(753.26,-5.66929)"/></g><g id="group113-129" transform="translate(255.118,-1190.55)"><g><path d="M0 1678.11 L1530.71 1678.11 L1530.71 1683.78 L0 1683.78 L0 1678.11 Z" class="css-1-2-3"/></g><g transform="translate(-1683.78,1683.78) rotate(-90)"><rect x="0" y="1683.21" width="5.66929" height="0.566929" class="css-1-2-6"/></g><g transform="translate(3214.49,1678.11) rotate(90)"><rect x="0" y="1683.21" width="5.66929" height="0.566929" class="css-1-2-6"/></g><g/><g><path d="M0 1678.11 L1530.71 1678.11" class="css-1-2-5"/><path d="M0 1683.78 L1530.71 1683.78" class="css-1-2-5"/></g><g transform="translate(724.914,-5.66929)"/></g><g id="group120-145" transform="translate(198.425,-680.315)"><g><path d="M0 1678.11 L1587.4 1678.11 L1587.4 1683.78 L0 1683.78 L0 1678.11 Z" class="css-1-2-3"/></g><g transform="translate(-1683.78,1683.78) rotate(-90)"><rect x="0" y="1683.21" width="5.66929" height="0.566929" class="css-1-2-6"/></g><g transform="translate(3271.18,1678.11) rotate(90)"><rect x="0" y="1683.21" width="5.66929" height="0.566929" class="css-1-2-6"/></g><g/><g><path d="M0 1678.11 L1587.4 1678.11" class="css-1-2-5"/><path d="M0 1683.78 L1587.4 1683.78" class="css-1-2-5"/></g><g transform="translate(753.26,-5.66929)"/></g><g id="group127-161" transform="translate(-1088.5,493.228) rotate(-90)"><g><path d="M5.67 1678.11 L283.46 1678.11 L283.46 1683.78 L5.67 1683.78 L5.67 1678.11 Z" class="css-1-2-3"/></g><g transform="translate(-1678.11,1683.78) rotate(-90)"><rect x="0" y="1683.21" width="5.66929" height="0.566929" class="css-1-2-6"/></g><g transform="translate(1967.24,1678.11) rotate(90)"><rect x="0" y="1683.21" width="5.66929" height="0.566929" class="css-1-2-6"/></g><g/><g><path d="M5.67 1678.11 L283.46 1678.11" class="css-1-2-5"/><path d="M5.67 1683.78 L283.46 1683.78" class="css-1-2-5"/></g><g transform="translate(106.347,-5.66929)"/></g><g id="group162-177" transform="translate(2556.85,209.764) rotate(90)"><g><path d="M0 1678.11 L277.8 1678.11 L277.8 1683.78 L0 1683.78 L0 1678.11 Z" class="css-1-2-3"/></g><g transform="translate(-1683.78,1683.78) rotate(-90)"><rect x="0" y="1683.21" width="5.66929" height="0.566929" class="css-1-2-6"/></g><g transform="translate(1961.57,1678.11) rotate(90)"><rect x="0" y="1683.21" width="5.66929" height="0.566929" class="css-1-2-6"/></g><g/><g><path d="M0 1678.11 L277.8 1678.11" class="css-1-2-5"/><path d="M0 1683.78 L277.8 1683.78" class="css-1-2-5"/></g><g transform="translate(106.347,-5.66929)"/></g><g id="group169-193" transform="translate(1309.61,-1190.55)"><g><path d="M-2.83 1683.92 L104.88 1683.92 L104.88 1677.97 L-2.83 1677.97 L-2.83 1683.92 Z" class="css-1-2-7"/></g><g transform="translate(-5.66929,2.83465)"/><g transform="translate(-5.66929,-5.66929)"/><g transform="translate(-2.83465,0)"/><g transform="translate(-2.83465,0)"><path d="M107.72 1683.78 L107.72 1678.11 L104.88 1678.11 L104.88 1680.94 L104.88 1683.78 L107.72 1683.78 Z M0 1683.78         L0 1678.11 L2.83 1678.11 L2.83 1680.94 L2.83 1683.78 L0 1683.78 Z" class="css-1-2-8"/><path d="M107.72 1683.78 L107.72 1678.11 L104.88 1678.11 L104.88 1680.94M104.88 1683.78 L107.72 1683.78M0 1683.78         L0 1678.11 L2.83 1678.11M2.83 1680.94 L2.83 1683.78 L0 1683.78" class="css-1-2-5"/></g><g transform="translate(0,-2.83465)"><path d="M102.05 1683.78 L100.91 1683.78 L100.91 1686.61 L102.05 1686.61 L102.05 1683.78 Z M0 1680.94 L1.13 1680.94         L1.13 1683.78 L0 1683.78 L0 1680.94 Z" class="css-1-2-8"/><path d="M102.05 1683.78 L100.91 1683.78 L100.91 1686.61 L102.05 1686.61M0 1680.94 L1.13 1680.94 L1.13 1683.78 L0         1683.78" class="css-1-2-5"/></g><g transform="translate(-2.83465,0)"><path d="M107.72 1683.78 L107.72 1678.11" class="css-1-2-5"/><path d="M0 1683.78 L0 1678.11" class="css-1-2-5"/></g><g transform="translate(51.0236,-5.66929)"><path d="M0 1683.78 A51.0236 51.0236 0 0 1 51.02 1632.76" class="css-1-2-5"/></g><g transform="translate(1782.99,1627.09) rotate(90)"><rect x="0" y="1680.94" width="51.0236" height="2.83465" class="css-1-2-9"/></g><g transform="translate(-1680.94,1734.8) rotate(-90)"><rect x="0" y="1680.94" width="51.0236" height="2.83465" class="css-1-2-9"/></g><g transform="translate(51.0236,3367.56) rotate(180)"><path d="M0 1683.78 A51.0236 51.0236 0 0 1 51.02 1632.76" class="css-1-2-5"/></g><g transform="translate(15.6383,-5.66929)"/></g><g id="group184-224" transform="translate(680.315,-774.803)"><g id="group185-225" transform="translate(9.82254E-013,-330.709)"><g><path d="M-8.5 1675.28 L518.74 1675.28 L510.24 1683.78 L0 1683.78 L-8.5 1675.28 Z" class="css-1-2-3"/></g><g transform="translate(-1190.61,2874.39) rotate(-135)"><rect x="0" y="1682.93" width="12.0264" height="0.850394" class="css-1-2-4"/></g><g transform="translate(1709.35,2865.89) rotate(135)"><rect x="0" y="1682.93" width="12.0264" height="0.850394" class="css-1-2-4"/></g><g/><g><path d="M-8.5 1675.28 L518.74 1675.28" class="css-1-2-5"/><path d="M0 1683.78 L510.24 1683.78" class="css-1-2-5"/></g><g transform="translate(219.733,-8.50394)"/></g><g id="group192-241" transform="translate(2194.02,1353.07) rotate(90)"><g><path d="M-8.5 1675.28 L339.21 1675.28 L330.71 1683.78 L0 1683.78 L-8.5 1675.28 Z" class="css-1-2-3"/></g><g transform="translate(-1190.61,2874.39) rotate(-135)"><rect x="0" y="1682.93" width="12.0264" height="0.850394" class="css-1-2-4"/></g><g transform="translate(1529.82,2865.89) rotate(135)"><rect x="0" y="1682.93" width="12.0264" height="0.850394" class="css-1-2-4"/></g><g/><g><path d="M-8.5 1675.28 L339.21 1675.28" class="css-1-2-5"/><path d="M0 1683.78 L330.71 1683.78" class="css-1-2-5"/></g><g transform="translate(129.969,-8.50394)"/></g><g id="group199-257" transform="translate(510.236,3367.56) rotate(180)"><g><path d="M-8.5 1675.28 L518.74 1675.28 L510.24 1683.78 L0 1683.78 L-8.5 1675.28 Z" class="css-1-2-3"/></g><g transform="translate(-1190.61,2874.39) rotate(-135)"><rect x="0" y="1682.93" width="12.0264" height="0.850394" class="css-1-2-4"/></g><g transform="translate(1709.35,2865.89) rotate(135)"><rect x="0" y="1682.93" width="12.0264" height="0.850394" class="css-1-2-4"/></g><g/><g><path d="M-8.5 1675.28 L518.74 1675.28" class="css-1-2-5"/><path d="M0 1683.78 L510.24 1683.78" class="css-1-2-5"/></g><g transform="translate(219.733,-8.50394)"/></g><g id="group206-273" transform="translate(-1683.78,1683.78) rotate(-90)"><g><path d="M-8.5 1675.28 L339.21 1675.28 L330.71 1683.78 L0 1683.78 L-8.5 1675.28 Z" class="css-1-2-3"/></g><g transform="translate(-1190.61,2874.39) rotate(-135)"><rect x="0" y="1682.93" width="12.0264" height="0.850394" class="css-1-2-4"/></g><g transform="translate(1529.82,2865.89) rotate(135)"><rect x="0" y="1682.93" width="12.0264" height="0.850394" class="css-1-2-4"/></g><g/><g><path d="M-8.5 1675.28 L339.21 1675.28" class="css-1-2-5"/><path d="M0 1683.78 L330.71 1683.78" class="css-1-2-5"/></g><g transform="translate(129.969,-8.50394)"/></g></g><g id="group215-289" transform="translate(2874.33,793.701) rotate(90) scale(-1,1)"><g><path d="M-2.83 1683.92 L104.88 1683.92 L104.88 1675.13 L-2.83 1675.13 L-2.83 1683.92 Z" class="css-1-2-7"/></g><g transform="translate(-5.66929,2.83465)"/><g transform="translate(-5.66929,-8.50394)"/><g transform="translate(-2.83465,0)"/><g transform="translate(-2.83465,0)"><path d="M107.72 1683.78 L107.72 1675.28 L104.88 1675.28 L104.88 1678.11 L104.88 1680.94 L104.88 1683.78 L107.72         1683.78 Z M0 1683.78 L0 1675.28 L2.83 1675.28 L2.83 1678.11 L2.83 1680.94 L2.83 1683.78 L0 1683.78 Z" class="css-1-2-8"/><path d="M107.72 1683.78 L107.72 1675.28 L104.88 1675.28 L104.88 1678.11M104.88 1680.94 L104.88 1683.78 L107.72 1683.78M0         1683.78 L0 1675.28 L2.83 1675.28 L2.83 1678.11M2.83 1680.94 L2.83 1683.78 L0 1683.78" class="css-1-2-5"/></g><g transform="translate(0,-2.83465)"><path d="M102.05 1680.94 L100.91 1680.94 L100.91 1683.78 L102.05 1683.78 L102.05 1680.94 Z M0 1680.94 L1.13 1680.94         L1.13 1683.78 L0 1683.78 L0 1680.94 Z" class="css-1-2-8"/><path d="M102.05 1680.94 L100.91 1680.94 L100.91 1683.78 L102.05 1683.78M0 1680.94 L1.13 1680.94 L1.13 1683.78 L0         1683.78" class="css-1-2-5"/></g><g transform="translate(-2.83465,0)"><path d="M107.72 1683.78 L107.72 1675.28" class="css-1-2-5"/><path d="M0 1683.78 L0 1675.28" class="css-1-2-5"/></g><g transform="translate(51.0236,-8.50394) scale(-1,1)"><path d="M0 1683.78 A51.0236 51.0236 0 0 1 51.02 1632.76" class="css-1-2-5"/></g><g transform="translate(51.0236,-8.50394)"><path d="M0 1683.78 A51.0236 51.0236 0 0 1 51.02 1632.76" class="css-1-2-5"/></g><g transform="translate(1683.78,1624.25) rotate(90)"><rect x="0" y="1680.94" width="51.0236" height="2.83465" class="css-1-2-9"/></g><g transform="translate(1782.99,1624.25) rotate(90)"><rect x="0" y="1680.94" width="51.0236" height="2.83465" class="css-1-2-9"/></g><g transform="translate(-1581.73,1729.13) rotate(-90)"/><g transform="translate(-1680.94,1729.13) rotate(-90)"/><g transform="translate(51.0236,3361.89) scale(1,-1)"/><g transform="translate(51.0236,3361.89) rotate(180)"/><g transform="translate(15.6383,-8.50394)"/></g><g id="group232-328" transform="translate(2355.59,636.378) rotate(90) scale(-1,1)"><g><path d="M-2.83 1683.92 L53.86 1683.92 L53.86 1675.13 L-2.83 1675.13 L-2.83 1683.92 Z" class="css-1-2-7"/></g><g transform="translate(-5.66929,2.83465)"/><g transform="translate(-5.66929,-8.50394)"/><g transform="translate(-2.83465,0)"/><g transform="translate(-2.83465,0)"><path d="M56.69 1683.78 L56.69 1675.28 L53.86 1675.28 L53.86 1678.11 L53.86 1680.94 L53.86 1683.78 L56.69 1683.78         Z M0 1683.78 L0 1675.28 L2.83 1675.28 L2.83 1678.11 L2.83 1680.94 L2.83 1683.78 L0 1683.78 Z" class="css-1-2-8"/><path d="M56.69 1683.78 L56.69 1675.28 L53.86 1675.28 L53.86 1678.11M53.86 1680.94 L53.86 1683.78 L56.69 1683.78M0         1683.78 L0 1675.28 L2.83 1675.28 L2.83 1678.11M2.83 1680.94 L2.83 1683.78 L0 1683.78" class="css-1-2-5"/></g><g transform="translate(0,-2.83465)"><path d="M51.02 1680.94 L49.89 1680.94 L49.89 1683.78 L51.02 1683.78 L51.02 1680.94 Z M0 1680.94 L1.13 1680.94 L1.13         1683.78 L0 1683.78 L0 1680.94 Z" class="css-1-2-8"/><path d="M51.02 1680.94 L49.89 1680.94 L49.89 1683.78 L51.02 1683.78M0 1680.94 L1.13 1680.94 L1.13 1683.78 L0 1683.78" class="css-1-2-5"/></g><g transform="translate(-2.83465,0)"><path d="M56.69 1683.78 L56.69 1675.28" class="css-1-2-5"/><path d="M0 1683.78 L0 1675.28" class="css-1-2-5"/></g><g transform="translate(0,-8.50394)"><path d="M0 1683.78 A51.0236 51.0236 0 0 1 51.02 1632.76" class="css-1-2-5"/></g><g transform="translate(1731.97,1624.25) rotate(90)"><rect x="0" y="1680.94" width="51.0236" height="2.83465" class="css-1-2-9"/></g><g transform="translate(0,3361.89) scale(1,-1)"/><g transform="translate(-1632.76,1729.13) rotate(-90)"/><g transform="translate(-4.81812,-8.50394)"/></g><g id="group245-358" transform="translate(887.244,2681.57) scale(1,-1)"><g><path d="M-2.83 1683.92 L104.88 1683.92 L104.88 1677.97 L-2.83 1677.97 L-2.83 1683.92 Z" class="css-1-2-7"/></g><g transform="translate(-5.66929,2.83465)"/><g transform="translate(-5.66929,-5.66929)"/><g transform="translate(-2.83465,0)"/><g transform="translate(-2.83465,0)"><path d="M107.72 1683.78 L107.72 1678.11 L104.88 1678.11 L104.88 1680.94 L104.88 1683.78 L107.72 1683.78 Z M0 1683.78         L0 1678.11 L2.83 1678.11 L2.83 1680.94 L2.83 1683.78 L0 1683.78 Z" class="css-1-2-8"/><path d="M107.72 1683.78 L107.72 1678.11 L104.88 1678.11 L104.88 1680.94M104.88 1683.78 L107.72 1683.78M0 1683.78         L0 1678.11 L2.83 1678.11 L2.83 1680.94M2.83 1683.78 L0 1683.78" class="css-1-2-5"/></g><g><path d="M102.05 1680.94 L100.91 1680.94 L100.91 1683.78 L102.05 1683.78 L102.05 1680.94 Z M0 1680.94 L1.13 1680.94         L1.13 1683.78 L0 1683.78 L0 1680.94 Z" class="css-1-2-8"/><path d="M102.05 1680.94 L100.91 1680.94 L100.91 1683.78 L102.05 1683.78M0 1680.94 L1.13 1680.94 L1.13 1683.78 L0         1683.78" class="css-1-2-5"/></g><g transform="translate(-2.83465,0)"><path d="M107.72 1683.78 L107.72 1678.11" class="css-1-2-5"/><path d="M0 1683.78 L0 1678.11" class="css-1-2-5"/></g><g transform="translate(51.0236,-5.66929) scale(-1,1)"><path d="M0 1683.78 A51.0236 51.0236 0 0 1 51.02 1632.76" class="css-1-2-5"/></g><g transform="translate(51.0236,-5.66929)"><path d="M0 1683.78 A51.0236 51.0236 0 0 1 51.02 1632.76" class="css-1-2-5"/></g><g transform="translate(1683.78,1627.09) rotate(90)"><rect x="0" y="1680.94" width="51.0236" height="2.83465" class="css-1-2-9"/></g><g transform="translate(1782.99,1627.09) rotate(90)"><rect x="0" y="1680.94" width="51.0236" height="2.83465" class="css-1-2-9"/></g><g transform="translate(-1581.73,1731.97) rotate(-90)"/><g transform="translate(-1680.94,1731.97) rotate(-90)"/><g transform="translate(51.0236,3364.72) scale(1,-1)"/><g transform="translate(51.0236,3364.72) rotate(180)"/><g transform="translate(15.6383,-5.66929)"/></g><g id="group262-397" transform="translate(-1230.24,1315.28) rotate(-90)"><g><path d="M5.67 1678.11 L311.81 1678.11 L311.81 1683.78 L5.67 1683.78 L5.67 1678.11 Z" class="css-1-2-3"/></g><g transform="translate(-1678.11,1683.78) rotate(-90)"><rect x="0" y="1683.21" width="5.66929" height="0.566929" class="css-1-2-6"/></g><g transform="translate(1995.59,1678.11) rotate(90)"><rect x="0" y="1683.21" width="5.66929" height="0.566929" class="css-1-2-6"/></g><g/><g><path d="M5.67 1678.11 L311.81 1678.11" class="css-1-2-5"/><path d="M5.67 1683.78 L311.81 1683.78" class="css-1-2-5"/></g><g transform="translate(120.52,-5.66929)"/></g><g id="group269-413" transform="translate(-1230.24,1060.16) rotate(-90)"><g><path d="M-2.83 1683.92 L53.86 1683.92 L53.86 1677.97 L-2.83 1677.97 L-2.83 1683.92 Z" class="css-1-2-7"/></g><g transform="translate(-5.66929,2.83465)"/><g transform="translate(-5.66929,-5.66929)"/><g transform="translate(-2.83465,0)"/><g transform="translate(-2.83465,0)"><path d="M56.69 1683.78 L56.69 1678.11 L53.86 1678.11 L53.86 1680.94 L53.86 1683.78 L56.69 1683.78 Z M0 1683.78 L0         1678.11 L2.83 1678.11 L2.83 1680.94 L2.83 1683.78 L0 1683.78 Z" class="css-1-2-8"/><path d="M56.69 1683.78 L56.69 1678.11 L53.86 1678.11 L53.86 1680.94M53.86 1683.78 L56.69 1683.78M0 1683.78 L0 1678.11         L2.83 1678.11 L2.83 1680.94M2.83 1683.78 L0 1683.78" class="css-1-2-5"/></g><g><path d="M51.02 1680.94 L49.89 1680.94 L49.89 1683.78 L51.02 1683.78 L51.02 1680.94 Z M0 1680.94 L1.13 1680.94 L1.13         1683.78 L0 1683.78 L0 1680.94 Z" class="css-1-2-8"/><path d="M51.02 1680.94 L49.89 1680.94 L49.89 1683.78 L51.02 1683.78M0 1680.94 L1.13 1680.94 L1.13 1683.78 L0 1683.78" class="css-1-2-5"/></g><g transform="translate(-2.83465,0)"><path d="M56.69 1683.78 L56.69 1678.11" class="css-1-2-5"/><path d="M0 1683.78 L0 1678.11" class="css-1-2-5"/></g><g transform="translate(0,-5.66929)"><path d="M0 1683.78 A51.0236 51.0236 0 0 1 51.02 1632.76" class="css-1-2-5"/></g><g transform="translate(1731.97,1627.09) rotate(90)"><rect x="0" y="1680.94" width="51.0236" height="2.83465" class="css-1-2-9"/></g><g transform="translate(0,3364.72) scale(1,-1)"/><g transform="translate(-1632.76,1731.97) rotate(-90)"/><g transform="translate(-4.81812,-5.66929)"/></g><g id="group284-443" transform="translate(198.425,-1474.02)"><g><path d="M-5.67 1678.11 L56.69 1678.11 L56.69 1680.94 L56.69 1683.78 L0 1683.78 L-5.67 1678.11 Z" class="css-1-2-3"/></g><g transform="translate(-1190.61,2874.39) rotate(-135)"><rect x="0" y="1683.21" width="8.01759" height="0.566929" class="css-1-2-4"/></g><g transform="translate(1740.47,1678.11) rotate(90)"><rect x="0" y="1683.21" width="5.66929" height="0.566929" class="css-1-2-4"/></g><g/><g><path d="M-5.67 1678.11 L56.69 1678.11 L56.69 1680.94" class="css-1-2-5"/><path d="M0 1683.78 L56.69 1683.78 L56.69 1680.94" class="css-1-2-5"/></g><g transform="translate(-7.0389,-5.66929)"/></g><g id="group293-459" transform="translate(-255.179,124.664) rotate(-45)"><g><path d="M2.35 1678.11 L435.3 1678.11 L440.97 1683.78 L8.02 1683.78 L2.35 1678.11 Z" class="css-1-2-3"/></g><g transform="translate(-1182.59,2874.39) rotate(-135)"><rect x="0" y="1683.21" width="8.01759" height="0.566929" class="css-1-2-6"/></g><g transform="translate(1625.91,487.498) rotate(45)"><rect x="0" y="1683.21" width="8.01759" height="0.566929" class="css-1-2-6"/></g><g/><g><path d="M2.35 1678.11 L435.3 1678.11" class="css-1-2-5"/><path d="M8.02 1683.78 L440.97 1683.78" class="css-1-2-5"/></g><g transform="translate(185.098,-5.66929)"/></g><g id="group302-475" transform="translate(453.543,-566.929)"><g><path d="M0 1678.11 L172.43 1678.11 L170.08 1683.78 L0 1683.78 L0 1678.11 Z" class="css-1-2-3"/></g><g transform="translate(-1683.78,1683.78) rotate(-90)"><rect x="0" y="1683.21" width="5.66929" height="0.566929" class="css-1-2-6"/></g><g transform="translate(1728.04,2322.46) rotate(112.5)"><rect x="0" y="1683.21" width="6.1364" height="0.566929" class="css-1-2-4"/></g><g/><g><path d="M0 1678.11 L172.43 1678.11" class="css-1-2-5"/><path d="M0 1683.78 L170.08 1683.78" class="css-1-2-5"/></g><g transform="translate(49.654,-5.66929)"/></g><g id="group309-491" transform="translate(1814.23,-73.7615) rotate(45)"><g><path d="M-2.35 1678.11 L278.27 1678.11 L272.6 1683.78 L0 1683.78 L-2.35 1678.11 Z" class="css-1-2-3"/></g><g transform="translate(-1555.61,2328.13) rotate(-112.5)"><rect x="0" y="1683.21" width="6.1364" height="0.566929" class="css-1-2-4"/></g><g transform="translate(1468.88,2868.72) rotate(135)"><rect x="0" y="1683.21" width="8.01759" height="0.566929" class="css-1-2-6"/></g><g/><g><path d="M-2.35 1678.11 L278.27 1678.11" class="css-1-2-5"/><path d="M0 1683.78 L272.6 1683.78" class="css-1-2-5"/></g><g transform="translate(104.922,-5.66929)"/></g><g id="group320-507" transform="translate(2424.52,2199.39) rotate(135)"><g><path d="M-2.83 1683.92 L53.86 1683.92 L53.86 1677.97 L-2.83 1677.97 L-2.83 1683.92 Z" class="css-1-2-7"/></g><g transform="translate(-5.66929,2.83465)"/><g transform="translate(-5.66929,-5.66929)"/><g transform="translate(-2.83465,0)"/><g transform="translate(-2.83465,0)"><path d="M56.69 1683.78 L56.69 1678.11 L53.86 1678.11 L53.86 1680.94 L53.86 1683.78 L56.69 1683.78 Z M0 1683.78 L0         1678.11 L2.83 1678.11 L2.83 1680.94 L2.83 1683.78 L0 1683.78 Z" class="css-1-2-8"/><path d="M56.69 1683.78 L56.69 1678.11 L53.86 1678.11 L53.86 1680.94M53.86 1683.78 L56.69 1683.78M0 1683.78 L0 1678.11         L2.83 1678.11 L2.83 1680.94M2.83 1683.78 L0 1683.78" class="css-1-2-5"/></g><g><path d="M51.02 1680.94 L49.89 1680.94 L49.89 1683.78 L51.02 1683.78 L51.02 1680.94 Z M0 1680.94 L1.13 1680.94 L1.13         1683.78 L0 1683.78 L0 1680.94 Z" class="css-1-2-8"/><path d="M51.02 1680.94 L49.89 1680.94 L49.89 1683.78 L51.02 1683.78M0 1680.94 L1.13 1680.94 L1.13 1683.78 L0 1683.78" class="css-1-2-5"/></g><g transform="translate(-2.83465,0)"><path d="M56.69 1683.78 L56.69 1678.11" class="css-1-2-5"/><path d="M0 1683.78 L0 1678.11" class="css-1-2-5"/></g><g transform="translate(0,-5.66929)"><path d="M0 1683.78 A51.0236 51.0236 0 0 1 51.02 1632.76" class="css-1-2-5"/></g><g transform="translate(1731.97,1627.09) rotate(90)"><rect x="0" y="1680.94" width="51.0236" height="2.83465" class="css-1-2-9"/></g><g transform="translate(0,3364.72) scale(1,-1)"/><g transform="translate(-1632.76,1731.97) rotate(-90)"/><g transform="translate(-4.81812,-5.66929)"/></g><g id="group333-537" transform="translate(-246.998,116.483) rotate(-45)"><g><path d="M-2.83 1683.92 L53.86 1683.92 L53.86 1677.97 L-2.83 1677.97 L-2.83 1683.92 Z" class="css-1-2-7"/></g><g transform="translate(-5.66929,2.83465)"/><g transform="translate(-5.66929,-5.66929)"/><g transform="translate(-2.83465,0)"/><g transform="translate(-2.83465,0)"><path d="M56.69 1683.78 L56.69 1678.11 L53.86 1678.11 L53.86 1680.94 L53.86 1683.78 L56.69 1683.78 Z M0 1683.78 L0         1678.11 L2.83 1678.11 L2.83 1680.94 L2.83 1683.78 L0 1683.78 Z" class="css-1-2-8"/><path d="M56.69 1683.78 L56.69 1678.11 L53.86 1678.11 L53.86 1680.94M53.86 1683.78 L56.69 1683.78M0 1683.78 L0 1678.11         L2.83 1678.11 L2.83 1680.94M2.83 1683.78 L0 1683.78" class="css-1-2-5"/></g><g><path d="M51.02 1680.94 L49.89 1680.94 L49.89 1683.78 L51.02 1683.78 L51.02 1680.94 Z M0 1680.94 L1.13 1680.94 L1.13         1683.78 L0 1683.78 L0 1680.94 Z" class="css-1-2-8"/><path d="M51.02 1680.94 L49.89 1680.94 L49.89 1683.78 L51.02 1683.78M0 1680.94 L1.13 1680.94 L1.13 1683.78 L0 1683.78" class="css-1-2-5"/></g><g transform="translate(-2.83465,0)"><path d="M56.69 1683.78 L56.69 1678.11" class="css-1-2-5"/><path d="M0 1683.78 L0 1678.11" class="css-1-2-5"/></g><g transform="translate(0,-5.66929)"><path d="M0 1683.78 A51.0236 51.0236 0 0 1 51.02 1632.76" class="css-1-2-5"/></g><g transform="translate(1731.97,1627.09) rotate(90)"><rect x="0" y="1680.94" width="51.0236" height="2.83465" class="css-1-2-9"/></g><g transform="translate(0,3364.72) scale(1,-1)"/><g transform="translate(-1632.76,1731.97) rotate(-90)"/><g transform="translate(-4.81812,-5.66929)"/></g><g id="group346-567" transform="translate(-456.359,2410.08) rotate(-135)"><g><path d="M-2.83 1683.92 L53.86 1683.92 L53.86 1677.97 L-2.83 1677.97 L-2.83 1683.92 Z" class="css-1-2-7"/></g><g transform="translate(-5.66929,-5.66929)"/><g transform="translate(-5.66929,2.83465)"/><g transform="translate(-2.83465,0)"/><g transform="translate(-2.83465,0)"><path d="M56.69 1683.78 L56.69 1678.11 L53.86 1678.11 L53.86 1683.78 L56.69 1683.78 Z M0 1683.78 L0 1678.11 L2.83         1678.11 L2.83 1683.78 L0 1683.78 Z" class="css-1-2-9"/></g><g/><g transform="translate(-2.83465,0)"><path d="M56.69 1683.78 L56.69 1678.11" class="css-1-2-5"/><path d="M0 1683.78 L0 1678.11" class="css-1-2-5"/></g><g transform="translate(0,-5.66929)"><path d="M0 1683.78 A51.0236 51.0236 0 0 1 51.02 1632.76" class="css-1-2-5"/></g><g transform="translate(1731.97,1627.09) rotate(90)"><rect x="0" y="1680.94" width="51.0236" height="2.83465" class="css-1-2-9"/></g><g transform="translate(0,3364.72) scale(1,-1)"><path d="M0 1683.78 A51.0236 51.0236 0 0 1 51.02 1632.76" class="css-1-2-10"/></g><g transform="translate(-1632.76,1731.97) rotate(-90)"><path d="M0 1683.78 L51.02 1683.78 L51.02 1680.94 L0 1680.94 L0 1683.78 Z" class="css-1-2-11"/></g><g transform="translate(-4.81812,-5.66929)"/></g><g id="group147-596" transform="translate(655.937,-1190.55) scale(-1,1)"><g><path d="M-2.83 1683.92 L53.86 1683.92 L53.86 1677.97 L-2.83 1677.97 L-2.83 1683.92 Z" class="css-1-2-7"/></g><g transform="translate(-5.66929,2.83465)"/><g transform="translate(-5.66929,-5.66929)"/><g transform="translate(-2.83465,0)"/><g transform="translate(-2.83465,0)"><path d="M56.69 1683.78 L56.69 1678.11 L53.86 1678.11 L53.86 1680.94 L53.86 1683.78 L56.69 1683.78 Z M0 1683.78 L0         1678.11 L2.83 1678.11 L2.83 1680.94 L2.83 1683.78 L0 1683.78 Z" class="css-1-2-8"/><path d="M56.69 1683.78 L56.69 1678.11 L53.86 1678.11 L53.86 1680.94M53.86 1683.78 L56.69 1683.78M0 1683.78 L0 1678.11         L2.83 1678.11 L2.83 1680.94M2.83 1683.78 L0 1683.78" class="css-1-2-5"/></g><g><path d="M51.02 1680.94 L49.89 1680.94 L49.89 1683.78 L51.02 1683.78 L51.02 1680.94 Z M0 1680.94 L1.13 1680.94 L1.13         1683.78 L0 1683.78 L0 1680.94 Z" class="css-1-2-8"/><path d="M51.02 1680.94 L49.89 1680.94 L49.89 1683.78 L51.02 1683.78M0 1680.94 L1.13 1680.94 L1.13 1683.78 L0 1683.78" class="css-1-2-5"/></g><g transform="translate(-2.83465,0)"><path d="M56.69 1683.78 L56.69 1678.11" class="css-1-2-5"/><path d="M0 1683.78 L0 1678.11" class="css-1-2-5"/></g><g transform="translate(0,-5.66929)"><path d="M0 1683.78 A51.0236 51.0236 0 0 1 51.02 1632.76" class="css-1-2-5"/></g><g transform="translate(1731.97,1627.09) rotate(90)"><rect x="0" y="1680.94" width="51.0236" height="2.83465" class="css-1-2-9"/></g><g transform="translate(0,3364.72) scale(1,-1)"/><g transform="translate(-1632.76,1731.97) rotate(-90)"/><g transform="translate(-4.81812,-5.66929)"/></g><g id="group134-626" transform="translate(528.945,-1190.55)"><g><path d="M-2.83 1683.92 L53.86 1683.92 L53.86 1677.97 L-2.83 1677.97 L-2.83 1683.92 Z" class="css-1-2-7"/></g><g transform="translate(-5.66929,2.83465)"/><g transform="translate(-5.66929,-5.66929)"/><g transform="translate(-2.83465,0)"/><g transform="translate(-2.83465,0)"><path d="M56.69 1683.78 L56.69 1678.11 L53.86 1678.11 L53.86 1680.94 L53.86 1683.78 L56.69 1683.78 Z M0 1683.78 L0         1678.11 L2.83 1678.11 L2.83 1680.94 L2.83 1683.78 L0 1683.78 Z" class="css-1-2-8"/><path d="M56.69 1683.78 L56.69 1678.11 L53.86 1678.11 L53.86 1680.94M53.86 1683.78 L56.69 1683.78M0 1683.78 L0 1678.11         L2.83 1678.11 L2.83 1680.94M2.83 1683.78 L0 1683.78" class="css-1-2-5"/></g><g><path d="M51.02 1680.94 L49.89 1680.94 L49.89 1683.78 L51.02 1683.78 L51.02 1680.94 Z M0 1680.94 L1.13 1680.94 L1.13         1683.78 L0 1683.78 L0 1680.94 Z" class="css-1-2-8"/><path d="M51.02 1680.94 L49.89 1680.94 L49.89 1683.78 L51.02 1683.78M0 1680.94 L1.13 1680.94 L1.13 1683.78 L0 1683.78" class="css-1-2-5"/></g><g transform="translate(-2.83465,0)"><path d="M56.69 1683.78 L56.69 1678.11" class="css-1-2-5"/><path d="M0 1683.78 L0 1678.11" class="css-1-2-5"/></g><g transform="translate(0,-5.66929)"><path d="M0 1683.78 A51.0236 51.0236 0 0 1 51.02 1632.76" class="css-1-2-5"/></g><g transform="translate(1731.97,1627.09) rotate(90)"><rect x="0" y="1680.94" width="51.0236" height="2.83465" class="css-1-2-9"/></g><g transform="translate(0,3364.72) scale(1,-1)"/><g transform="translate(-1632.76,1731.97) rotate(-90)"/><g transform="translate(-4.81812,-5.66929)"/></g></g></svg>